<?xml version="1.0" encoding="UTF-8"?>
<!DOCTYPE svg PUBLIC "-//W3C//DTD SVG 1.1//EN" "http://www.w3.org/Graphics/SVG/1.1/DTD/svg11.dtd">
<!-- Creator: CorelDRAW 2021 (64-Bit) -->
<svg xmlns="http://www.w3.org/2000/svg" xml:space="preserve" width="0.466665in" height="0.466665in" version="1.1" style="shape-rendering:geometricPrecision; text-rendering:geometricPrecision; image-rendering:optimizeQuality; fill-rule:evenodd; clip-rule:evenodd"
viewBox="0 0 12.97 12.97"
 xmlns:xlink="http://www.w3.org/1999/xlink"
 xmlns:xodm="http://www.corel.com/coreldraw/odm/2003">
 <defs>
  <style type="text/css">
   <![CDATA[
    .fil0 {fill:#1E2220}
    .fil1 {fill:white}
   ]]>
  </style>
 </defs>
 <g id="Layer_x0020_1">
  <metadata id="CorelCorpID_0Corel-Layer"/>
  <g id="_1452347423728">
   <path class="fil0" d="M6.38 5.36c0.01,-0.98 0.35,-1.67 1.23,-1.8 1.3,-0.19 0.74,0.77 2.19,0.14 -0.06,0.41 -0.26,0.33 -0.36,0.74l0.57 -0.16c-0.23,0.51 -0.55,0.46 -0.66,0.92 -0.22,1 -0.21,2.19 -1.5,3.26 -1.55,1.29 -2.87,1.09 -4.83,0.44l0.32 -0.14c0,-0 0.23,-0.04 0.25,-0.04 0.47,-0.07 0.96,-0.16 1.31,-0.53 -0.59,-0.37 -0.78,-0.28 -1.15,-0.91l0.37 -0.31c-0.58,-0.2 -0.77,-0.53 -0.97,-1.21 0.02,-0.01 0.05,-0.02 0.06,-0.02l0.44 -0.08c-0.67,-0.87 -0.59,-1.86 -0.18,-1.72 0.11,0.04 0.07,0.03 0.16,0.1 0.32,0.25 0.35,0.44 0.96,0.77 0.54,0.3 1.07,0.47 1.78,0.53zm-0.86 -5.26c-2.02,0.35 -3.21,1.25 -4.14,2.39 -0.92,1.13 -1.62,3.06 -1.29,5.04 0.54,3.17 3.54,6.01 7.44,5.35 3.17,-0.54 6.01,-3.53 5.35,-7.43 -0.53,-3.14 -3.52,-6.01 -7.36,-5.34z"/>
   <path class="fil1" d="M6.38 5.37c-0.7,-0.06 -1.23,-0.24 -1.78,-0.53 -0.61,-0.33 -0.64,-0.52 -0.96,-0.77 -0.09,-0.07 -0.05,-0.06 -0.16,-0.1 -0.41,-0.14 -0.49,0.85 0.18,1.72l-0.44 0.08c-0.01,0 -0.05,0.01 -0.06,0.02 0.19,0.68 0.39,1 0.97,1.21l-0.37 0.31c0.37,0.63 0.56,0.54 1.15,0.91 -0.34,0.37 -0.84,0.46 -1.31,0.53 -0.03,0 -0.25,0.04 -0.25,0.04l-0.32 0.14c1.97,0.65 3.28,0.85 4.83,-0.44 1.29,-1.07 1.28,-2.26 1.5,-3.26 0.1,-0.46 0.42,-0.41 0.66,-0.92l-0.57 0.16c0.1,-0.41 0.29,-0.33 0.36,-0.74 -1.45,0.64 -0.89,-0.33 -2.19,-0.14 -0.88,0.13 -1.22,0.82 -1.23,1.8z"/>
  </g>
 </g>
</svg>
