<?xml version="1.0" encoding="UTF-8"?>
<!DOCTYPE svg PUBLIC "-//W3C//DTD SVG 1.1//EN" "http://www.w3.org/Graphics/SVG/1.1/DTD/svg11.dtd">
<!-- Creator: CorelDRAW 2021 (64-Bit) -->
<svg xmlns="http://www.w3.org/2000/svg" xml:space="preserve" width="0.466665in" height="0.466665in" version="1.1" style="shape-rendering:geometricPrecision; text-rendering:geometricPrecision; image-rendering:optimizeQuality; fill-rule:evenodd; clip-rule:evenodd"
viewBox="0 0 14.16 14.16"
 xmlns:xlink="http://www.w3.org/1999/xlink"
 xmlns:xodm="http://www.corel.com/coreldraw/odm/2003">
 <defs>
  <style type="text/css">
   <![CDATA[
    .fil0 {fill:#1E2220}
    .fil1 {fill:#F0F2F2}
   ]]>
  </style>
 </defs>
 <g id="Layer_x0020_1">
  <metadata id="CorelCorpID_0Corel-Layer"/>
  <g id="_1452348825984">
   <path class="fil0" d="M3.52 5.48l1.69 -0 0 5.09 -1.69 -0 0 -5.08zm3.26 -5.48l0.69 0c0.89,0.04 1.78,0.26 2.61,0.65 1.53,0.73 2.72,1.91 3.44,3.45 0.47,1.02 0.65,1.89 0.65,3.17 0,2.66 -1.74,5.14 -4.1,6.24 -1.01,0.47 -1.9,0.65 -3.17,0.65 -2.65,0 -5.14,-1.73 -6.24,-4.1 -0.47,-1.02 -0.65,-1.89 -0.65,-3.17 0,-1.83 0.88,-3.63 2.07,-4.82 1.26,-1.26 2.97,-1.98 4.71,-2.07zm1.06 6.18c0.09,-0.17 0.41,-0.48 0.58,-0.58 0.76,-0.46 1.99,-0.28 2.52,0.57 0.37,0.58 0.37,1.24 0.37,2.01 0,0.79 0,1.59 0,2.38l-1.69 0c0,-0.8 -0,-1.61 0,-2.41 0,-0.75 -0.08,-1.49 -0.9,-1.46 -0.37,0.01 -0.61,0.24 -0.74,0.45 -0.18,0.29 -0.14,0.66 -0.14,1.04 0,0.79 0,1.59 0,2.38l-1.69 -0.01 -0 -5.08 1.69 -0 0.01 0.7zm-3.74 -3.12c1.32,-0.32 1.66,1.42 0.53,1.68 -1.3,0.31 -1.69,-1.41 -0.53,-1.68z"/>
   <path class="fil1" d="M7.84 6.18l-0.01 -0.7 -1.69 0 0 5.08 1.69 0.01c0,-0.79 0,-1.59 0,-2.38 0,-0.38 -0.04,-0.74 0.14,-1.04 0.13,-0.21 0.36,-0.44 0.74,-0.45 0.83,-0.03 0.9,0.71 0.9,1.46 -0,0.8 0,1.61 0,2.41l1.69 -0c0,-0.79 0,-1.59 0,-2.38 0,-0.77 0,-1.43 -0.37,-2.01 -0.54,-0.85 -1.76,-1.03 -2.52,-0.57 -0.17,0.1 -0.49,0.41 -0.58,0.58z"/>
   <polygon class="fil1" points="3.52,10.56 5.21,10.57 5.21,5.48 3.52,5.48 "/>
   <path class="fil1" d="M4.1 3.07c-1.16,0.28 -0.77,2 0.53,1.68 1.12,-0.27 0.78,-2 -0.53,-1.68z"/>
  </g>
 </g>
</svg>
