<?xml version="1.0" encoding="UTF-8"?>
<!DOCTYPE svg PUBLIC "-//W3C//DTD SVG 1.1//EN" "http://www.w3.org/Graphics/SVG/1.1/DTD/svg11.dtd">
<!-- Creator: CorelDRAW 2021 (64-Bit) -->
<svg xmlns="http://www.w3.org/2000/svg" xml:space="preserve" width="0.466665in" height="0.466665in" version="1.1" style="shape-rendering:geometricPrecision; text-rendering:geometricPrecision; image-rendering:optimizeQuality; fill-rule:evenodd; clip-rule:evenodd"
viewBox="0 0 11.96 11.96"
 xmlns:xlink="http://www.w3.org/1999/xlink"
 xmlns:xodm="http://www.corel.com/coreldraw/odm/2003">
 <defs>
  <style type="text/css">
   <![CDATA[
    .fil0 {fill:#1E2220}
    .fil1 {fill:white}
   ]]>
  </style>
 </defs>
 <g id="Layer_x0020_1">
  <metadata id="CorelCorpID_0Corel-Layer"/>
  <g id="_1452347440192">
   <path class="fil0" d="M2.97 3.93c0,-0.73 0.23,-0.95 0.95,-0.95l4.1 0c0.72,0 0.95,0.23 0.95,0.95l0 4.1c0,0.72 -0.23,0.95 -0.95,0.95l-4.11 0c-0.73,0 -0.95,-0.23 -0.95,-0.95l0 -4.1zm2.11 -3.84c-3.45,0.6 -5.54,3.65 -5,6.85 0.5,2.92 3.26,5.54 6.86,4.93 2.92,-0.5 5.54,-3.26 4.93,-6.86 -0.49,-2.9 -3.25,-5.54 -6.79,-4.93z"/>
   <path class="fil1" d="M5.72 4.84c1.48,-0.4 2.08,1.89 0.61,2.26 -1.62,0.4 -2.23,-1.81 -0.61,-2.26zm2.06 0.7l0.45 -0.13 0 2.8 -4.49 0.03 -0.03 -2.82 0.47 0.09c-0.6,3.19 4.29,2.93 3.59,0.02zm0.43 -1.78c0.05,0.64 0.08,0.48 -0.05,1.07 -1.16,0.05 -1.11,0.17 -1.02,-1.08l1.07 0zm-5.24 0.17l0 4.1c0,0.73 0.22,0.95 0.95,0.95l4.11 0c0.72,0 0.95,-0.23 0.95,-0.95l0 -4.1c0,-0.72 -0.23,-0.95 -0.95,-0.95l-4.1 0c-0.73,0 -0.95,0.23 -0.95,0.95z"/>
   <path class="fil0" d="M7.78 5.54c0.7,2.91 -4.19,3.17 -3.59,-0.02l-0.47 -0.09 0.03 2.82 4.49 -0.03 -0 -2.8 -0.45 0.13z"/>
   <path class="fil0" d="M5.72 4.84c-1.62,0.44 -1.01,2.66 0.61,2.26 1.47,-0.37 0.87,-2.66 -0.61,-2.26z"/>
   <path class="fil0" d="M7.14 3.76c-0.09,1.24 -0.15,1.13 1.02,1.08 0.13,-0.6 0.1,-0.43 0.05,-1.07l-1.07 -0z"/>
  </g>
 </g>
</svg>
