<?xml version="1.0" encoding="UTF-8"?>
<!DOCTYPE svg PUBLIC "-//W3C//DTD SVG 1.1//EN" "http://www.w3.org/Graphics/SVG/1.1/DTD/svg11.dtd">
<!-- Creator: CorelDRAW 2021 (64-Bit) -->
<svg xmlns="http://www.w3.org/2000/svg" xml:space="preserve" width="1.0359in" height="1.0359in" version="1.1" style="shape-rendering:geometricPrecision; text-rendering:geometricPrecision; image-rendering:optimizeQuality; fill-rule:evenodd; clip-rule:evenodd"
viewBox="0 0 241.94 241.94"
 xmlns:xlink="http://www.w3.org/1999/xlink"
 xmlns:xodm="http://www.corel.com/coreldraw/odm/2003">
 <defs>
  <style type="text/css">
   <![CDATA[
    .str0 {stroke:#201E1E;stroke-width:1.62;stroke-miterlimit:2.61313}
    .str1 {stroke:#201E1E;stroke-width:0.7;stroke-linejoin:round;stroke-miterlimit:2.61313}
    .fil2 {fill:none;fill-rule:nonzero}
    .fil1 {fill:#1E2220}
    .fil0 {fill:#FFD541}
    .fil3 {fill:#1E2220;fill-rule:nonzero}
   ]]>
  </style>
 </defs>
 <g id="Layer_x0020_1">
  <metadata id="CorelCorpID_0Corel-Layer"/>
  <g id="_2167951371888">
   <circle class="fil0" cx="120.97" cy="120.97" r="120.97"/>
   <g>
    <g>
     <path class="fil1 str0" d="M90 42.89c27.95,-1.56 52,19.7 53.6,47.67 1.61,28.14 -19.68,52.3 -47.86,53.96 -28.05,1.66 -52.33,-19.83 -53.9,-47.91 -1.58,-28.37 19.86,-52.14 48.16,-53.72zm92.34 155.91l4.76 0c4.62,-1.61 8,-3.44 9.86,-8.28 1.74,-4.54 0.96,-9.86 -2.32,-13.51 -9.44,-10.5 -25.05,-24.22 -35.64,-35.56 -6.86,-7.35 -5.84,2.78 -10.58,-2.55 -2.73,-3.07 -5.98,-5.77 -8.73,-8.92 1.03,-2.28 2.52,-3.91 3.82,-6.06 4.06,-6.72 6.86,-14.9 7.83,-22.66 1.44,-11.49 -0.49,-23.66 -5.69,-34.03 -4.34,-8.67 -10.99,-16.2 -18.83,-21.87 -9.83,-7.11 -18.01,-8.9 -29.7,-10.77l-8.89 0c-18.78,2.64 -33.54,9.85 -44.41,25.87 -11.17,16.48 -13.17,37.03 -5.85,55.5 10.42,26.32 39.35,41.54 67.33,35.44 10.56,-2.3 14.87,-5.62 23.76,-10.79 2.59,2.2 5.02,4.92 7.46,7.31 7.01,6.85 0.57,2.65 1.43,8.48 0.31,2.1 5.11,6.06 6.76,7.73l28.87 28.87c3.67,3.66 3.73,4 8.78,5.81z"/>
     <path class="fil1 str0" d="M89.87 54.15c0.57,4.27 7.03,2.88 16.02,7.28 5.2,2.55 9.7,5.54 13.39,10.09 11.03,13.57 4.72,23.42 9.63,25.71 10.48,4.88 7.46,-22.57 -8.73,-36.26 -4.44,-3.75 -9.39,-6.53 -14.83,-8.57 -3.64,-1.36 -16.61,-6.6 -15.49,1.76z"/>
    </g>
    <g>
     <path class="fil2 str1" d="M102.78 111.51c-2.91,-2.26 -5.25,-4.59 -7.02,-7.02 -1.78,-2.44 -3.07,-4.73 -3.93,-6.88 -0.83,-2.15 -1.69,-4.76 -2.54,-7.85 -0.67,-2.28 -1.23,-4.11 -1.74,-5.49 -0.48,-1.39 -1.16,-2.75 -2.03,-4.1 -0.88,-1.34 -2,-2.54 -3.38,-3.61l-0.04 -0.03c-2.39,-1.86 -4.73,-2.68 -6.99,-2.47 -2.27,0.2 -4.25,1.39 -5.96,3.58 -1.74,2.24 -2.25,4.59 -1.57,7.08 0.7,2.5 2.52,4.91 5.5,7.26l0.04 0.03 -6.62 8.54 -0.04 -0.03c-3.54,-2.93 -6.11,-6.02 -7.7,-9.28 -1.58,-3.25 -2.17,-6.53 -1.74,-9.87 0.42,-3.33 1.84,-6.55 4.27,-9.69 2.53,-3.27 5.31,-5.6 8.33,-6.99 3.02,-1.4 6.17,-1.82 9.41,-1.27 3.24,0.55 6.49,2.1 9.72,4.61l0.04 0.03c1.96,1.52 3.52,3.13 4.69,4.85 1.17,1.72 2.05,3.4 2.64,5.02 0.59,1.63 1.23,3.7 1.89,6.25 0.69,2.74 1.39,5.07 2.08,6.97 0.71,1.9 1.79,3.89 3.25,5.95 1.47,2.06 3.44,4.05 5.95,5.99l-6.53 8.42zm6.39 5.3l6.84 -8.82 8.82 6.84 -6.84 8.82 -8.82 -6.84z"/>
     <path id="_1" class="fil3" d="M102.78 111.51c-2.91,-2.26 -5.25,-4.59 -7.02,-7.02 -1.78,-2.44 -3.07,-4.73 -3.93,-6.88 -0.83,-2.15 -1.69,-4.76 -2.54,-7.85 -0.67,-2.28 -1.23,-4.11 -1.74,-5.49 -0.48,-1.39 -1.16,-2.75 -2.03,-4.1 -0.88,-1.34 -2,-2.54 -3.38,-3.61l-0.04 -0.03c-2.39,-1.86 -4.73,-2.68 -6.99,-2.47 -2.27,0.2 -4.25,1.39 -5.96,3.58 -1.74,2.24 -2.25,4.59 -1.57,7.08 0.7,2.5 2.52,4.91 5.5,7.26l0.04 0.03 -6.62 8.54 -0.04 -0.03c-3.54,-2.93 -6.11,-6.02 -7.7,-9.28 -1.58,-3.25 -2.17,-6.53 -1.74,-9.87 0.42,-3.33 1.84,-6.55 4.27,-9.69 2.53,-3.27 5.31,-5.6 8.33,-6.99 3.02,-1.4 6.17,-1.82 9.41,-1.27 3.24,0.55 6.49,2.1 9.72,4.61l0.04 0.03c1.96,1.52 3.52,3.13 4.69,4.85 1.17,1.72 2.05,3.4 2.64,5.02 0.59,1.63 1.23,3.7 1.89,6.25 0.69,2.74 1.39,5.07 2.08,6.97 0.71,1.9 1.79,3.89 3.25,5.95 1.47,2.06 3.44,4.05 5.95,5.99l-6.53 8.42zm6.39 5.3l6.84 -8.82 8.82 6.84 -6.84 8.82 -8.82 -6.84z"/>
    </g>
   </g>
  </g>
 </g>
</svg>
