<?xml version="1.0" encoding="UTF-8"?>
<!DOCTYPE svg PUBLIC "-//W3C//DTD SVG 1.1//EN" "http://www.w3.org/Graphics/SVG/1.1/DTD/svg11.dtd">
<!-- Creator: CorelDRAW 2021 (64-Bit) -->
<svg xmlns="http://www.w3.org/2000/svg" xml:space="preserve" width="0.466665in" height="0.466665in" version="1.1" style="shape-rendering:geometricPrecision; text-rendering:geometricPrecision; image-rendering:optimizeQuality; fill-rule:evenodd; clip-rule:evenodd"
viewBox="0 0 11.12 11.12"
 xmlns:xlink="http://www.w3.org/1999/xlink"
 xmlns:xodm="http://www.corel.com/coreldraw/odm/2003">
 <defs>
  <style type="text/css">
   <![CDATA[
    .fil0 {fill:#1E2220}
    .fil1 {fill:#F9F9FA}
   ]]>
  </style>
 </defs>
 <g id="Layer_x0020_1">
  <metadata id="CorelCorpID_0Corel-Layer"/>
  <g id="_1416076161216">
   <path class="fil0" d="M8.07 5.57c-0.23,0.58 -0.78,0.95 -1.55,1.04 0.03,0.09 0.09,0.18 0.13,0.31 0.1,0.33 0.06,1.34 0.06,1.79 -0.46,0.01 -1.25,0.02 -1.69,-0l0 -0.83c-0.31,0.04 -0.5,0.07 -0.8,-0.02 -0.64,-0.2 -0.64,-0.74 -1.06,-1.2 -0.08,-0.09 -0.2,-0.11 -0.21,-0.23 0.21,-0.11 0.49,0.04 0.6,0.14 0.32,0.27 0.41,0.96 1.46,0.68 0.06,-0.5 0.1,-0.38 0.2,-0.64 -0.77,-0.09 -1.34,-0.46 -1.56,-1.06 -0.18,-0.49 -0.17,-1.74 0.31,-2.07 -0.02,-0.2 -0.1,-0.29 -0.1,-0.55 0,-0.23 0.06,-0.34 0.1,-0.53 0.23,0.03 0.36,0.12 0.5,0.24 0.1,0.08 0.28,0.26 0.33,0.39 0.19,-0.08 0.22,-0.13 0.47,-0.17 0.47,-0.07 1.27,-0.07 1.64,0.16 0.02,-0.02 0.01,-0.01 0.03,-0.03 0.11,-0.12 0.12,-0.18 0.32,-0.35 0.13,-0.11 0.28,-0.21 0.5,-0.23 0.04,0.19 0.1,0.3 0.1,0.53 0,0.26 -0.08,0.35 -0.1,0.55 0.49,0.34 0.49,1.61 0.3,2.09zm-2.14 -5.57l-0.67 0c-0.06,0.02 -0.49,0.06 -0.61,0.08 -1.9,0.31 -3.48,1.6 -4.21,3.33 -0.28,0.67 -0.46,1.48 -0.43,2.3 0.03,0.87 0.21,1.52 0.52,2.21 0.36,0.79 0.92,1.45 1.5,1.93 0.38,0.31 0.78,0.58 1.26,0.78 1.44,0.63 3.06,0.66 4.52,0.01 0.56,-0.25 1.2,-0.68 1.64,-1.1 0.81,-0.79 1.61,-2.11 1.67,-3.79 0.03,-0.87 -0.13,-1.59 -0.41,-2.32 -0.26,-0.67 -0.69,-1.24 -1.07,-1.67 -0.33,-0.37 -0.98,-0.88 -1.56,-1.17 -1.18,-0.58 -1.96,-0.52 -2.15,-0.6z"/>
   <path class="fil1" d="M3.96 3.48c-0.48,0.33 -0.49,1.59 -0.31,2.07 0.22,0.59 0.79,0.96 1.56,1.06 -0.1,0.26 -0.14,0.14 -0.2,0.64 -1.05,0.28 -1.15,-0.41 -1.46,-0.68 -0.12,-0.1 -0.4,-0.25 -0.6,-0.14 0.01,0.11 0.13,0.14 0.21,0.23 0.41,0.46 0.42,1 1.06,1.2 0.3,0.09 0.49,0.06 0.8,0.02l-0 0.83c0.44,0.02 1.23,0.01 1.69,0 -0,-0.45 0.04,-1.46 -0.06,-1.79 -0.04,-0.14 -0.11,-0.23 -0.13,-0.31 0.78,-0.09 1.32,-0.46 1.55,-1.04 0.19,-0.48 0.19,-1.74 -0.3,-2.09 0.02,-0.2 0.1,-0.29 0.1,-0.55 -0,-0.23 -0.06,-0.34 -0.1,-0.53 -0.22,0.02 -0.37,0.13 -0.5,0.23 -0.2,0.17 -0.21,0.24 -0.32,0.35 -0.02,0.03 -0.01,0.02 -0.03,0.03 -0.37,-0.23 -1.17,-0.23 -1.64,-0.16 -0.26,0.04 -0.29,0.09 -0.47,0.17 -0.05,-0.13 -0.23,-0.31 -0.33,-0.39 -0.14,-0.12 -0.26,-0.21 -0.5,-0.24 -0.04,0.19 -0.1,0.3 -0.1,0.53 -0,0.26 0.07,0.35 0.1,0.55z"/>
  </g>
 </g>
</svg>
