<?xml version="1.0" encoding="UTF-8"?>
<!DOCTYPE svg PUBLIC "-//W3C//DTD SVG 1.1//EN" "http://www.w3.org/Graphics/SVG/1.1/DTD/svg11.dtd">
<!-- Creator: CorelDRAW 2021 (64-Bit) -->
<svg xmlns="http://www.w3.org/2000/svg" xml:space="preserve" width="2.97472in" height="1.56573in" version="1.1" style="shape-rendering:geometricPrecision; text-rendering:geometricPrecision; image-rendering:optimizeQuality; fill-rule:evenodd; clip-rule:evenodd"
viewBox="0 0 404.65 212.99"
 xmlns:xlink="http://www.w3.org/1999/xlink"
 xmlns:xodm="http://www.corel.com/coreldraw/odm/2003">
 <defs>
  <style type="text/css">
   <![CDATA[
    .fil3 {fill:#1E2220}
    .fil2 {fill:#FEFEFE;fill-rule:nonzero}
    .fil1 {fill:#A9ABAE;fill-rule:nonzero}
    .fil0 {fill:#1E2220;fill-rule:nonzero}
   ]]>
  </style>
 </defs>
 <g id="Layer_x0020_1">
  <metadata id="CorelCorpID_0Corel-Layer"/>
  <g id="_2167459064064">
   <path class="fil0" d="M27.12 0l4.56 0 14.06 38.12 -5.77 0 -10.57 -30.76 -10.56 30.76 -5.77 0 14.06 -38.12zm-7.58 24.67l20.05 0 0 5.08 -20.05 0 0 -5.08z"/>
   <path id="_1" class="fil0" d="M66.44 0l5.35 0 0 38.12 -5.35 0 0 -38.12zm-6.84 38.6c-2,0 -3.7,-0.44 -5.1,-1.3 -1.41,-0.87 -2.48,-2.13 -3.21,-3.79 -0.73,-1.66 -1.1,-3.65 -1.1,-5.98l0 -6c0,-2.34 0.36,-4.35 1.07,-6.01 0.72,-1.66 1.76,-2.93 3.13,-3.79 1.37,-0.86 3.02,-1.3 4.94,-1.3 1.61,0 3.09,0.42 4.42,1.26 1.33,0.84 2.42,2.01 3.24,3.54l-0.55 5.56c0,-1.15 -0.21,-2.14 -0.63,-2.96 -0.42,-0.81 -1.03,-1.44 -1.83,-1.87 -0.8,-0.43 -1.75,-0.64 -2.89,-0.64 -1.77,0 -3.13,0.55 -4.11,1.66 -0.97,1.1 -1.45,2.65 -1.45,4.64l0 5.92c0,1.98 0.48,3.51 1.45,4.58 0.98,1.07 2.34,1.61 4.11,1.61 1.14,0 2.09,-0.22 2.89,-0.67 0.8,-0.45 1.41,-1.08 1.83,-1.92 0.42,-0.84 0.63,-1.84 0.63,-3.02l0.37 5.74c-0.54,1.35 -1.42,2.48 -2.66,3.38 -1.23,0.91 -2.75,1.37 -4.55,1.37z"/>
   <path id="_2" class="fil0" d="M79.92 0l5.34 0 0 5.35 -5.34 0 0 -5.35zm0 10.91l5.34 0 0 27.21 -5.34 0 0 -27.21z"/>
   <polygon id="_3" class="fil0" points="109.42,10.91 115,10.91 104.77,38.12 100.74,38.12 90.51,10.91 96.1,10.91 102.76,30.34 "/>
   <path id="_4" class="fil0" d="M120.24 0l5.34 0 0 5.35 -5.34 0 0 -5.35zm0 10.91l5.34 0 0 27.21 -5.34 0 0 -27.21z"/>
   <path id="_5" class="fil0" d="M133.72 10.91l5.34 0 0 27.21 -5.34 0 0 -27.21zm16.51 10.72c0,-1.92 -0.49,-3.41 -1.49,-4.46 -0.99,-1.05 -2.39,-1.58 -4.19,-1.58 -1.75,0 -3.1,0.47 -4.05,1.4 -0.95,0.92 -1.43,2.23 -1.43,3.9l-0.55 -5.24c0.84,-1.64 1.93,-2.91 3.29,-3.8 1.35,-0.89 2.85,-1.33 4.49,-1.33 2.95,0 5.24,0.97 6.86,2.9 1.62,1.93 2.43,4.66 2.43,8.19l0 16.52 -5.35 0 0 -16.49z"/>
   <path id="_6" class="fil0" d="M179.08 20.87c0,-1.78 -0.48,-3.17 -1.43,-4.15 -0.96,-0.98 -2.3,-1.49 -4.05,-1.49 -1.08,0 -2.15,0.17 -3.19,0.5 -1.04,0.33 -1.96,0.8 -2.77,1.39l-3.9 -2.68c1.03,-1.23 2.39,-2.2 4.07,-2.89 1.69,-0.69 3.56,-1.04 5.63,-1.04 2.26,0 4.18,0.39 5.79,1.19 1.61,0.8 2.84,1.95 3.67,3.46 0.84,1.51 1.26,3.34 1.26,5.47l0 17.49 -5.08 0 0 -17.25zm-6.67 17.65c-3.36,0 -5.86,-0.7 -7.52,-2.08 -1.66,-1.39 -2.5,-3.5 -2.5,-6.33 0,-2.69 0.76,-4.72 2.28,-6.06 1.52,-1.35 3.82,-2.02 6.9,-2.02l7.73 0 0.37 4.3 -8.07 0c-1.4,0 -2.44,0.3 -3.14,0.93 -0.69,0.62 -1.03,1.57 -1.03,2.85 0,1.38 0.46,2.4 1.38,3.06 0.91,0.67 2.31,1 4.18,1 2.04,0 3.57,-0.22 4.57,-0.66 1,-0.43 1.51,-1.12 1.51,-2.04l0.55 3.83c-0.47,0.73 -1.06,1.33 -1.74,1.81 -0.69,0.47 -1.49,0.82 -2.4,1.06 -0.9,0.24 -1.93,0.36 -3.07,0.36z"/>
   <path class="fil1" d="M8.72 96.81c0,1.08 0.25,1.91 0.72,2.5 0.47,0.58 1.12,0.88 1.99,0.88l4.1 0 0 8.31 -5.13 0c-3.32,0 -5.87,-1.04 -7.68,-3.08 -1.81,-2.06 -2.72,-4.95 -2.72,-8.69l0 -50.66 8.72 0 0 50.75z"/>
   <path id="_1_0" class="fil1" d="M50.02 80.12c0,-2.91 -0.79,-5.17 -2.34,-6.78 -1.56,-1.61 -3.75,-2.42 -6.62,-2.42 -1.77,0 -3.51,0.28 -5.2,0.82 -1.69,0.54 -3.2,1.3 -4.51,2.26l-6.37 -4.37c1.68,-2.02 3.9,-3.59 6.65,-4.72 2.76,-1.12 5.81,-1.69 9.19,-1.69 3.68,0 6.82,0.64 9.45,1.94 2.63,1.3 4.63,3.18 5.99,5.65 1.37,2.47 2.06,5.45 2.06,8.92l0 28.54 -8.3 0 0 -28.16zm-10.88 28.8c-5.48,0 -9.57,-1.14 -12.27,-3.4 -2.72,-2.26 -4.07,-5.71 -4.07,-10.33 0,-4.4 1.24,-7.7 3.72,-9.89 2.48,-2.2 6.24,-3.3 11.26,-3.3l12.62 0 0.6 7.02 -13.17 0c-2.29,0 -3.99,0.5 -5.13,1.52 -1.12,1.01 -1.68,2.56 -1.68,4.64 0,2.25 0.74,3.91 2.25,4.99 1.49,1.1 3.77,1.64 6.82,1.64 3.33,0 5.83,-0.37 7.46,-1.08 1.64,-0.7 2.47,-1.83 2.47,-3.33l0.89 6.25c-0.77,1.2 -1.72,2.18 -2.85,2.95 -1.12,0.76 -2.42,1.34 -3.91,1.72 -1.48,0.39 -3.15,0.58 -5.01,0.58z"/>
   <path id="_2_1" class="fil1" d="M100.45 75.84l19.89 0c1.88,0 3.53,-0.44 4.97,-1.33 1.43,-0.88 2.53,-2.13 3.32,-3.75 0.79,-1.64 1.18,-3.5 1.18,-5.61l0 0c0,-2.15 -0.39,-4.03 -1.18,-5.65 -0.79,-1.62 -1.88,-2.89 -3.32,-3.78 -1.43,-0.91 -3.08,-1.34 -4.97,-1.34l-19.89 0 0 -8.31 19.6 0c3.71,0 6.97,0.79 9.8,2.38 2.82,1.58 5.01,3.81 6.56,6.69 1.56,2.89 2.34,6.22 2.34,10.02l0 0c0,3.8 -0.77,7.13 -2.34,9.99 -1.55,2.86 -3.74,5.08 -6.56,6.66 -2.83,1.56 -6.09,2.35 -9.8,2.35l-19.6 0 0 -8.31zm-4.5 -29.78l8.73 0 0 62.22 -8.73 0 0 -62.22z"/>
   <path id="_3_2" class="fil1" d="M172.6 80.12c0,-2.91 -0.79,-5.17 -2.34,-6.78 -1.56,-1.61 -3.75,-2.42 -6.62,-2.42 -1.77,0 -3.51,0.28 -5.2,0.82 -1.69,0.54 -3.2,1.3 -4.51,2.26l-6.37 -4.37c1.68,-2.02 3.9,-3.59 6.65,-4.72 2.76,-1.12 5.81,-1.69 9.19,-1.69 3.68,0 6.82,0.64 9.45,1.94 2.63,1.3 4.63,3.18 5.99,5.65 1.37,2.47 2.06,5.45 2.06,8.92l0 28.54 -8.3 0 0 -28.16zm-10.88 28.8c-5.48,0 -9.57,-1.14 -12.27,-3.4 -2.72,-2.26 -4.07,-5.71 -4.07,-10.33 0,-4.4 1.24,-7.7 3.72,-9.89 2.48,-2.2 6.24,-3.3 11.26,-3.3l12.62 0 0.6 7.02 -13.17 0c-2.29,0 -3.99,0.5 -5.13,1.52 -1.12,1.01 -1.68,2.56 -1.68,4.64 0,2.25 0.74,3.91 2.25,4.99 1.49,1.1 3.77,1.64 6.82,1.64 3.33,0 5.83,-0.37 7.46,-1.08 1.64,-0.7 2.47,-1.83 2.47,-3.33l0.89 6.25c-0.77,1.2 -1.72,2.18 -2.85,2.95 -1.12,0.76 -2.42,1.34 -3.91,1.72 -1.48,0.39 -3.15,0.58 -5.01,0.58z"/>
   <path id="_4_3" class="fil1" d="M202.87 96.81c0,1.08 0.25,1.91 0.72,2.5 0.47,0.58 1.12,0.88 1.99,0.88l4.1 0 0 8.31 -5.13 0c-3.32,0 -5.87,-1.04 -7.68,-3.08 -1.81,-2.06 -2.72,-4.95 -2.72,-8.69l0 -50.66 8.72 0 0 50.75z"/>
   <path id="_5_4" class="fil1" d="M244.17 80.12c0,-2.91 -0.79,-5.17 -2.34,-6.78 -1.56,-1.61 -3.75,-2.42 -6.62,-2.42 -1.77,0 -3.51,0.28 -5.2,0.82 -1.69,0.54 -3.2,1.3 -4.51,2.26l-6.37 -4.37c1.68,-2.02 3.9,-3.59 6.65,-4.72 2.76,-1.12 5.81,-1.69 9.19,-1.69 3.68,0 6.82,0.64 9.45,1.94 2.63,1.3 4.63,3.18 5.99,5.65 1.37,2.47 2.06,5.45 2.06,8.92l0 28.54 -8.3 0 0 -28.16zm-10.88 28.8c-5.48,0 -9.57,-1.14 -12.27,-3.4 -2.72,-2.26 -4.07,-5.71 -4.07,-10.33 0,-4.4 1.24,-7.7 3.72,-9.89 2.48,-2.2 6.24,-3.3 11.26,-3.3l12.62 0 0.6 7.02 -13.17 0c-2.29,0 -3.99,0.5 -5.13,1.52 -1.12,1.01 -1.68,2.56 -1.68,4.64 0,2.25 0.74,3.91 2.25,4.99 1.49,1.1 3.77,1.64 6.82,1.64 3.33,0 5.83,-0.37 7.46,-1.08 1.64,-0.7 2.47,-1.83 2.47,-3.33l0.89 6.25c-0.77,1.2 -1.72,2.18 -2.85,2.95 -1.12,0.76 -2.42,1.34 -3.91,1.72 -1.48,0.39 -3.15,0.58 -5.01,0.58z"/>
   <path id="_6_5" class="fil1" d="M285.62 108.92c-2.76,0 -5.17,-0.66 -7.23,-1.99 -2.06,-1.33 -3.56,-3.21 -4.54,-5.64l0.6 -9.27c0,1.91 0.35,3.53 1.04,4.88 0.69,1.33 1.67,2.37 2.96,3.08 1.3,0.7 2.88,1.07 4.73,1.07 2.88,0 5.11,-0.88 6.7,-2.63 1.58,-1.75 2.37,-4.24 2.37,-7.43l0 -9.62c0,-3.24 -0.79,-5.77 -2.37,-7.56 -1.59,-1.8 -3.83,-2.7 -6.7,-2.7 -1.85,0 -3.43,0.35 -4.73,1.02 -1.3,0.69 -2.28,1.69 -2.96,3.02 -0.69,1.33 -1.04,2.92 -1.04,4.78l-0.89 -8.56c1.34,-2.6 3.1,-4.6 5.26,-6.02 2.18,-1.42 4.59,-2.12 7.23,-2.12 3.14,0 5.83,0.7 8.08,2.12 2.23,1.42 3.94,3.48 5.11,6.18 1.17,2.72 1.75,5.99 1.75,9.8l0 9.67c0,3.77 -0.6,7 -1.8,9.68 -1.2,2.67 -2.95,4.72 -5.27,6.13 -2.31,1.42 -5.07,2.12 -8.3,2.12zm-19.89 -62.86l8.72 0 0 62.22 -8.72 0 0 -62.22z"/>
   <path id="_7" class="fil1" d="M313.4 63.87l8.72 0 0 44.41 -8.72 0 0 -44.41zm24.43 10.53c-0.77,-0.95 -1.75,-1.67 -2.92,-2.15 -1.17,-0.48 -2.51,-0.73 -4.06,-0.73 -2.76,0 -4.91,0.77 -6.44,2.29 -1.52,1.53 -2.29,3.65 -2.29,6.35l-0.89 -8.56c1.37,-2.64 3.14,-4.7 5.3,-6.18 2.18,-1.47 4.57,-2.21 7.19,-2.21 2.03,0 3.87,0.29 5.51,0.88 1.64,0.58 3.07,1.45 4.29,2.59l-5.68 7.71z"/>
   <path id="_8" class="fil1" d="M375.87 80.12c0,-2.91 -0.79,-5.17 -2.34,-6.78 -1.56,-1.61 -3.75,-2.42 -6.62,-2.42 -1.77,0 -3.51,0.28 -5.2,0.82 -1.69,0.54 -3.2,1.3 -4.51,2.26l-6.37 -4.37c1.68,-2.02 3.9,-3.59 6.65,-4.72 2.76,-1.12 5.81,-1.69 9.19,-1.69 3.68,0 6.82,0.64 9.45,1.94 2.63,1.3 4.63,3.18 5.99,5.65 1.37,2.47 2.06,5.45 2.06,8.92l0 28.54 -8.3 0 0 -28.16zm-10.88 28.8c-5.48,0 -9.57,-1.14 -12.27,-3.4 -2.72,-2.26 -4.07,-5.71 -4.07,-10.33 0,-4.4 1.24,-7.7 3.72,-9.89 2.48,-2.2 6.24,-3.3 11.26,-3.3l12.62 0 0.6 7.02 -13.17 0c-2.29,0 -3.99,0.5 -5.13,1.52 -1.12,1.01 -1.68,2.56 -1.68,4.64 0,2.25 0.74,3.91 2.25,4.99 1.49,1.1 3.77,1.64 6.82,1.64 3.33,0 5.83,-0.37 7.46,-1.08 1.64,-0.7 2.47,-1.83 2.47,-3.33l0.89 6.25c-0.77,1.2 -1.72,2.18 -2.85,2.95 -1.12,0.76 -2.42,1.34 -3.91,1.72 -1.48,0.39 -3.15,0.58 -5.01,0.58z"/>
   <path class="fil1" d="M113.06 171.14c-0.51,0.22 -0.97,0.51 -1.32,0.92 -0.38,0.38 -0.7,0.81 -0.97,1.22 -0.13,0.16 -0.27,0.32 -0.38,0.49 -3.11,4.22 -5.89,8.68 -8.32,13.38 -1,1.95 -1.73,4 -2.22,6.16 -0.32,1.43 -0.38,2.81 -0.24,4.16 0.16,1.35 0.78,2.54 1.84,3.54 1.89,0.35 3.41,0.62 4.51,0.78 1.11,0.16 2.62,-0.03 4.6,-0.57 1,-0.24 2,-0.54 3,-0.86l0.32 -0.16c2.11,-0.68 3.92,-2.03 5.46,-4.08 1.51,-2.03 2.35,-4.11 2.46,-6.27 0.57,-2.32 0.03,-5.19 -1.62,-8.6 -1.68,-3.41 -3.76,-6.65 -6.22,-9.7 -0.05,-0.11 -0.13,-0.19 -0.24,-0.22 -0.11,0 -0.22,-0.05 -0.32,-0.11 -0.11,0 -0.22,-0.03 -0.32,-0.08zm-19.95 -26.76c0.05,-2.11 -0.16,-4.19 -0.62,-6.27 -0.11,-0.24 -0.16,-0.51 -0.14,-0.78 0.03,-0.27 0.11,-0.51 0.22,-0.78 0.84,-1.7 1.43,-3.49 1.81,-5.38 0.16,-0.59 0.32,-1.19 0.49,-1.84 0.3,-0.95 0.81,-1.76 1.49,-2.46 0,-0.05 0.03,-0.08 0.08,-0.14l2.05 -2.7c1.11,-1.7 2.41,-3.24 3.89,-4.68 0.32,-0.32 0.59,-0.73 0.86,-1.27 0.16,-0.22 0.35,-0.46 0.57,-0.78 1.46,-0.43 2.68,-1.19 3.62,-2.3 0.59,-0.62 1.22,-1.19 1.92,-1.68 1.51,-0.95 3.03,-1.92 4.51,-2.92 1.51,-1 3.08,-2 4.68,-3 3.57,-2.32 7.49,-3.35 11.7,-3.11 0.95,0.05 1.87,0.08 2.78,0.08l0.08 0c2.73,-0.11 5.49,0.41 8.22,1.51 0.27,0.27 0.54,0.57 0.81,0.86 1.22,1.11 2.3,2.46 3.24,4.05 1.38,2.57 1.59,5.3 0.7,8.14 -1.27,3.65 -2.68,7.24 -4.19,10.78 -0.16,0.41 -0.35,0.84 -0.57,1.27 -0.35,1.22 -1.08,2.27 -2.14,3.16 -0.35,-0.32 -0.57,-0.65 -0.59,-1.03 -0.03,-0.38 0.03,-0.73 0.13,-1.11l0 -0.16c0.35,-2.32 0.51,-4.68 0.46,-7.05l0 -1.43c0.05,-1.35 -0.11,-2.7 -0.46,-4.03 -0.16,-0.62 -0.32,-1.05 -0.49,-1.3 -0.16,-0.24 -0.35,-0.35 -0.54,-0.35 -0.22,0 -0.49,0.05 -0.81,0.14 -0.57,0.22 -1.41,0.27 -2.51,0.16 -2.81,-0.35 -5.24,0 -7.32,1.08 -2.11,1.08 -4.11,2.46 -6.08,4.16 -0.57,0.41 -1.16,0.86 -1.73,1.32 -0.73,0.54 -1.43,1.11 -2.05,1.68 -1,0.84 -2.03,1.65 -3.08,2.46 -0.27,0.16 -0.54,0.35 -0.81,0.54 -0.27,0.22 -0.43,0.46 -0.54,0.73 -0.54,1.16 -1.27,2.05 -2.22,2.68l-0.49 0.32c-2,1.54 -3.16,3.54 -3.49,6.03 -0.11,0.62 -0.32,1.22 -0.62,1.73 -0.54,1.32 -0.32,2.78 0.68,4.41 0.97,1.59 2.38,2.89 4.22,3.84 0.11,1 0.46,1.84 1.03,2.54 0.59,0.68 1.24,1.3 2,1.89 0.57,0.46 1.14,0.97 1.65,1.51 1.49,1.51 2.76,3.16 3.81,4.89 1.16,1.95 2.46,3.78 3.87,5.46l1.92 2.38c1.22,1.76 2.22,3.51 3,5.32 0.22,0.46 0.43,0.92 0.65,1.32 0.84,1.81 1.59,3.65 2.27,5.54 0.7,1.92 1.11,3.89 1.27,5.95 0.05,0.43 0.08,0.84 0.08,1.27 0.05,0.95 0.13,1.87 0.24,2.78 0.54,5.05 -0.81,9.51 -4.03,13.38 -0.38,0.46 -0.76,0.97 -1.11,1.49 -0.81,1.11 -1.7,2.14 -2.7,3.11 -3.38,3.32 -7.41,4.97 -12.11,4.97 -0.95,0 -1.89,0.03 -2.78,0.08 -1.84,0.22 -3.73,0.13 -5.7,-0.24 -3.27,-0.73 -6.05,-2.03 -8.38,-3.92 -2.32,-1.86 -4.05,-4.43 -5.16,-7.7 -0.51,-1.32 -0.59,-2.65 -0.22,-3.97 0.3,-1.22 0.49,-2.46 0.54,-3.73 0.05,-0.3 0.08,-0.62 0.08,-0.95 0.51,-3.78 1.81,-7.3 3.89,-10.51 1.57,-2.65 3.41,-5.05 5.49,-7.22 2.08,-2.16 4.32,-4.22 6.7,-6.16 0.46,-0.43 0.97,-0.89 1.49,-1.35 0.22,-0.22 0.46,-0.43 0.73,-0.65 -1.32,-2.32 -2.95,-4.35 -4.84,-6.08 -2.7,-2.97 -5.16,-6.11 -7.43,-9.43 -1,-1.43 -2.05,-2.84 -3.11,-4.27 -0.51,-0.7 -0.81,-1.46 -0.86,-2.3zm67.25 16.46c-1.49,1 -2.08,1.81 -1.78,2.43 0.27,0.59 0.73,0.84 1.3,0.73 0.59,-0.08 1.22,-0.27 1.95,-0.51 0.7,-0.22 1.78,-0.65 3.24,-1.22 1.46,-0.59 2.73,-1.49 3.84,-2.7l1.27 -1.41c0.89,-0.86 1.7,-1.78 2.41,-2.78 0.73,-1 1.24,-2.14 1.54,-3.41 -0.24,-0.05 -0.49,-0.08 -0.7,-0.08 -0.73,-0.05 -1.3,-0.08 -1.7,-0.11 -0.41,-0.03 -0.76,0.03 -1.08,0.16 -0.3,0.14 -0.73,0.32 -1.24,0.59 -1.38,0.68 -2.68,1.46 -3.87,2.32 -1.16,0.86 -2.14,2.05 -2.86,3.51 -0.49,1.03 -1.24,1.84 -2.3,2.46zm-2.22 6.81c-3.3,-0.27 -5.08,1.16 -5.41,4.27 -0.11,0.7 -0.3,1.35 -0.62,2 -0.43,0.89 -0.62,1.84 -0.57,2.84 0.7,0.73 1.54,1.08 2.54,1.03 3.65,1.32 7.3,1.11 10.92,-0.62 2.14,-0.95 4.22,-1.92 6.27,-2.95 1.38,-0.73 2.76,-1.43 4.19,-2.14 0.11,-0.05 0.22,-0.08 0.32,-0.08 4.43,-2.46 9.03,-5.19 13.78,-8.14 0.73,-1.05 1.84,-1.51 3.32,-1.35 1.46,0.16 2.87,0.92 4.19,2.3 -1.7,2.22 -4.24,4.68 -7.68,7.35 -0.81,0.7 -1.38,1.49 -1.76,2.38 -0.3,0.84 -0.73,1.43 -1.27,1.76 -1.78,1 -3.49,2.3 -5.14,3.95 -1.65,1.65 -5.35,3.81 -11.16,6.54 -5.81,2.7 -9.62,4.33 -11.49,4.87 -1.22,0.27 -2.43,0.38 -3.65,0.32 -1,0 -1.92,0.08 -2.76,0.22 -3.11,-0.78 -5.87,-1.41 -8.27,-1.84 -2.41,-0.46 -4.46,-2.14 -6.14,-5.03l-0.32 -1.92 -0.95 -4.6c-0.22,-1.35 -0.11,-2.73 0.3,-4.11 0.05,-0.11 0.08,-0.24 0.08,-0.41 0.59,-2.32 1.41,-4.54 2.46,-6.65l0.95 -2.38c1.22,-2.51 2.7,-4.84 4.43,-6.95 0.05,-0.16 0.14,-0.3 0.24,-0.41 0.11,-0.16 0.24,-0.3 0.41,-0.41 0.11,-0.05 0.22,-0.11 0.32,-0.19 0.11,-0.08 0.14,-0.16 0.14,-0.27 0.76,-1.92 1.89,-3.46 3.41,-4.68 0.76,-0.65 1.43,-1.32 2.08,-2.05 1.62,-2.08 3.51,-3.78 5.62,-5.19 2.11,-1.41 4.32,-2.65 6.65,-3.76 1.32,-0.65 2.73,-0.95 4.27,-0.89 0.73,0 1.49,-0.05 2.22,-0.16 1.16,-0.24 2.43,-0.27 3.81,-0.05 0.57,0.24 1.19,0.51 1.81,0.78 1.49,0.62 2.97,1.38 4.51,2.22 1.54,0.84 2.92,1.97 4.19,3.41 0.16,2.38 -0.08,4.62 -0.76,6.76 -0.65,2.14 -2.03,4.08 -4.13,5.84 -2.27,1.78 -4.6,3.41 -6.97,4.86 -2.38,1.46 -5,2.51 -7.84,3.19 -2.05,0.38 -4.11,0.49 -6.11,0.32l-0.46 0zm31.27 19l-0.46 -1.57c-0.32,-1.11 -0.68,-2.19 -1.05,-3.24 -0.46,-1.7 -0.65,-3.35 -0.54,-4.95 0.11,-1.62 0.35,-3.22 0.7,-4.81 0.16,-0.78 0.3,-1.57 0.41,-2.38 0.73,-3.62 1.97,-7.03 3.73,-10.22 1.68,-3.73 3.95,-7.08 6.81,-10.05 3.27,-2.78 6.81,-5.19 10.68,-7.19 1.84,-1 3.95,-1.49 6.3,-1.46 2.35,0.03 4.43,0.49 6.22,1.38 0.95,0.38 1.7,1.3 2.3,2.76 -1.54,-0.13 -3.14,-0.05 -4.78,0.32 -1.68,0.38 -3.05,1.08 -4.16,2.14l-2.05 2.87c-3.03,3.78 -5.78,7.76 -8.33,11.87 -2.54,4.11 -4.41,8.62 -5.62,13.54 -0.27,1.59 0.11,3.03 1.11,4.35 2.59,1.59 5.24,1.65 8,0.16 2.27,-1.11 4.49,-2.3 6.65,-3.57 2.32,-1.38 4.73,-2.62 7.22,-3.78 0.73,-0.38 1.35,-0.92 1.89,-1.59 0.32,-0.38 0.73,-0.59 1.22,-0.7 0.51,-0.11 1.05,-0.16 1.62,-0.16 0.49,0 0.95,-0.03 1.41,-0.08 0.43,-0.05 0.78,-0.22 1.05,-0.49 0.65,-0.57 1.13,-1.03 1.46,-1.32 0.35,-0.32 1.62,-1.11 3.78,-2.35 2.16,-1.24 4.51,-1.95 7.03,-2.11 0.86,0.59 1.32,1.3 1.41,2.16 0.08,0.84 0,1.7 -0.22,2.59 -0.62,2.54 -1.92,4.65 -3.87,6.35 -0.95,0.78 -1.7,1.41 -2.22,1.89 -0.54,0.49 -0.97,0.89 -1.35,1.27 -0.43,0.41 -0.92,0.89 -1.46,1.38 -0.57,0.51 -1.43,1.22 -2.57,2.19 -0.65,0.51 -1.32,1 -2.08,1.41 -1.22,0.65 -2.19,1.41 -2.92,2.3 -0.38,0.32 -0.7,0.51 -1,0.57 -0.27,0.05 -0.51,0.08 -0.68,0.08l-0.13 0c-5.35,3.54 -10.81,6.22 -16.41,8.08 -2.11,0.13 -4.19,0.05 -6.24,-0.32 -0.87,-0.05 -1.68,-0.13 -2.46,-0.24 -1.59,-0.27 -2.95,-0.86 -4.05,-1.81 -1,-0.86 -2.14,-1.43 -3.41,-1.76 -0.3,-0.35 -0.59,-0.76 -0.86,-1.19 -0.51,-0.95 -1.22,-1.7 -2.05,-2.3zm44.57 -8.46c-0.11,-0.89 -0.03,-1.84 0.24,-2.78 1.54,-4.89 3,-9.87 4.43,-14.87 1.43,-5.03 2.62,-10.11 3.57,-15.3l0 -0.08c0.05,-0.38 0.13,-0.73 0.24,-1.11 0.11,-0.35 0.32,-0.7 0.62,-1.03 1.16,-0.11 2.11,-0.3 2.87,-0.54 2.05,-0.27 3.24,-0.38 3.59,-0.3 0.35,0.08 0.51,0.51 0.51,1.32 0,0.57 -0.08,1.14 -0.24,1.65 -0.11,0.54 -0.16,1.08 -0.19,1.68 -0.03,0.57 0.13,1.19 0.51,1.81 2.16,-1 4.05,-1.89 5.7,-2.65 1.62,-0.76 3.78,-0.65 6.41,0.35 2.49,0.32 4.3,2 5.46,5.08 2.16,4.68 2.08,7.54 -0.3,8.54 -0.54,1 -0.95,1.73 -1.24,2.14 -0.27,0.43 -1.27,0.16 -2.92,-0.78 -1.68,-0.95 -2.92,-1.59 -3.76,-1.89 -0.43,0.51 -0.92,0.89 -1.51,1.11 -0.57,0.19 -1.22,0.35 -1.89,0.46 -0.16,0.05 -0.32,0.08 -0.49,0.08 -2.05,0.49 -3.81,1.57 -5.27,3.24 -1.43,1.7 -2.3,3.68 -2.57,5.95 -0.27,2.32 -0.54,4.65 -0.86,6.97 -0.38,2.11 -0.68,4.22 -0.86,6.32 -0.38,3.27 -1.43,6.3 -3.19,9.03 -1.35,0.65 -2.68,0.78 -3.95,0.43 -1.27,-0.32 -2.46,-0.95 -3.57,-1.86 -2.05,-1.73 -2.73,-4 -2.05,-6.81 0.57,-2 0.81,-4.05 0.7,-6.16zm53.87 -17.35c-1.49,1 -2.08,1.81 -1.78,2.43 0.27,0.59 0.73,0.84 1.3,0.73 0.59,-0.08 1.22,-0.27 1.95,-0.51 0.7,-0.22 1.78,-0.65 3.24,-1.22 1.46,-0.59 2.73,-1.49 3.84,-2.7l1.27 -1.41c0.89,-0.86 1.7,-1.78 2.41,-2.78 0.73,-1 1.24,-2.14 1.54,-3.41 -0.24,-0.05 -0.49,-0.08 -0.7,-0.08 -0.73,-0.05 -1.3,-0.08 -1.7,-0.11 -0.41,-0.03 -0.76,0.03 -1.08,0.16 -0.3,0.14 -0.73,0.32 -1.24,0.59 -1.38,0.68 -2.68,1.46 -3.87,2.32 -1.16,0.86 -2.14,2.05 -2.86,3.51 -0.49,1.03 -1.24,1.84 -2.3,2.46zm-2.22 6.81c-3.3,-0.27 -5.08,1.16 -5.41,4.27 -0.11,0.7 -0.3,1.35 -0.62,2 -0.43,0.89 -0.62,1.84 -0.57,2.84 0.7,0.73 1.54,1.08 2.54,1.03 3.65,1.32 7.3,1.11 10.92,-0.62 2.14,-0.95 4.22,-1.92 6.27,-2.95 1.38,-0.73 2.76,-1.43 4.19,-2.14 0.11,-0.05 0.22,-0.08 0.32,-0.08 4.43,-2.46 9.03,-5.19 13.78,-8.14 0.73,-1.05 1.84,-1.51 3.32,-1.35 1.46,0.16 2.87,0.92 4.19,2.3 -1.7,2.22 -4.24,4.68 -7.68,7.35 -0.81,0.7 -1.38,1.49 -1.76,2.38 -0.3,0.84 -0.73,1.43 -1.27,1.76 -1.78,1 -3.49,2.3 -5.14,3.95 -1.65,1.65 -5.35,3.81 -11.16,6.54 -5.81,2.7 -9.62,4.33 -11.49,4.87 -1.22,0.27 -2.43,0.38 -3.65,0.32 -1,0 -1.92,0.08 -2.76,0.22 -3.11,-0.78 -5.87,-1.41 -8.27,-1.84 -2.41,-0.46 -4.46,-2.14 -6.14,-5.03l-0.32 -1.92 -0.95 -4.6c-0.22,-1.35 -0.11,-2.73 0.3,-4.11 0.05,-0.11 0.08,-0.24 0.08,-0.41 0.59,-2.32 1.41,-4.54 2.46,-6.65l0.95 -2.38c1.22,-2.51 2.7,-4.84 4.43,-6.95 0.05,-0.16 0.14,-0.3 0.24,-0.41 0.11,-0.16 0.24,-0.3 0.41,-0.41 0.11,-0.05 0.22,-0.11 0.32,-0.19 0.11,-0.08 0.14,-0.16 0.14,-0.27 0.76,-1.92 1.89,-3.46 3.41,-4.68 0.76,-0.65 1.43,-1.32 2.08,-2.05 1.62,-2.08 3.51,-3.78 5.62,-5.19 2.11,-1.41 4.32,-2.65 6.65,-3.76 1.32,-0.65 2.73,-0.95 4.27,-0.89 0.73,0 1.49,-0.05 2.22,-0.16 1.16,-0.24 2.43,-0.27 3.81,-0.05 0.57,0.24 1.19,0.51 1.81,0.78 1.49,0.62 2.97,1.38 4.51,2.22 1.54,0.84 2.92,1.97 4.19,3.41 0.16,2.38 -0.08,4.62 -0.76,6.76 -0.65,2.14 -2.03,4.08 -4.13,5.84 -2.27,1.78 -4.6,3.41 -6.97,4.86 -2.38,1.46 -5,2.51 -7.84,3.19 -2.05,0.38 -4.11,0.49 -6.11,0.32l-0.46 0zm61.52 -6.08c1.11,0.41 1.76,0.78 1.89,1.14 0.16,0.35 0.11,0.95 -0.14,1.78 -0.11,0.32 -0.19,0.62 -0.24,0.95 -0.16,0.65 -0.22,1.27 -0.16,1.89 0.16,1.54 -0.38,2.84 -1.59,3.89 -4.54,7.81 -7.51,12.43 -8.95,13.87 -1.3,1.38 -2.68,2.7 -4.11,4.03 -1.78,1.65 -3.7,3.08 -5.7,4.35 -1.95,1.32 -3.65,2.68 -5.05,4.05l-0.32 0.3c-4.97,0.97 -8.97,-0.3 -12.03,-3.78 -0.49,-2 -0.57,-3.97 -0.3,-5.87 0.3,-1.89 0.7,-3.78 1.24,-5.62 0.62,-2.11 1.32,-5.3 2.05,-9.57 1.78,-2.65 2.89,-5.68 3.32,-9.11 0.38,-1.86 1.68,-6.19 3.92,-13 2.24,-6.81 3.6,-11.73 4.08,-14.81 1.16,-1.27 2,-2.73 2.54,-4.43 0.41,-1.22 0.97,-2.41 1.65,-3.57 -1.62,-0.62 -3.38,-1.03 -5.27,-1.22 -1.87,-0.19 -3.81,-0.3 -5.81,-0.35 -2.05,-0.05 -4.08,-0.19 -6.11,-0.41 -2,-0.22 -3.81,-0.68 -5.46,-1.43 0.22,-0.51 0.68,-1.05 1.35,-1.57 0.68,-0.54 1.38,-0.97 2.11,-1.35 0.7,-0.38 1.24,-0.57 1.62,-0.57 2.05,-0.19 4.08,-0.51 6.08,-0.95 1.97,-0.41 3.95,-0.7 5.95,-0.86 0.62,-0.11 1.27,-0.19 1.89,-0.24 1.43,-0.24 2.89,-0.32 4.35,-0.22 1.76,0.19 3.46,-0.32 5.16,-1.59 1.16,-2.54 2.43,-5.03 3.81,-7.43 0.89,-1.49 1.73,-3 2.51,-4.51 1.11,0.19 1.84,0.51 2.19,0.89 0.35,0.41 0.43,1.08 0.27,2.03 0,0.51 0.05,0.92 0.11,1.19 0.08,0.27 0.19,0.46 0.3,0.62 0.11,0.11 0.19,0.3 0.27,0.57 0.08,0.27 0.08,0.68 0.03,1.27 -0.05,0.22 -0.16,0.65 -0.38,1.32 -0.27,0.81 -0.51,1.62 -0.73,2.43 -0.19,0.81 -0.22,1.35 -0.05,1.62 0.3,0.32 0.54,0.68 0.7,1.11 0.11,0.32 0.24,0.57 0.41,0.78 0.13,0.22 0.35,0.3 0.62,0.24 1.43,-0.05 2.89,-0.03 4.43,0.08 1.89,0.22 3.73,0.22 5.46,0 0.89,-0.11 1.73,-0.13 2.49,-0.11 0.78,0.03 1.57,0.08 2.35,0.19 0.46,0.05 1,0.11 1.57,0.16 1.38,0.16 2.73,0.16 4.05,0 3.22,-0.54 6.43,-0.68 9.65,-0.41l1.43 0c1,0.11 2.03,0.11 3.08,0 2.59,-0.32 5.16,-0.27 7.7,0.16 2.51,0.43 5.03,0.95 7.51,1.59 0.16,0.03 0.32,0.08 0.54,0.13 0.81,0.16 1.68,0.3 2.62,0.41 1.43,0.05 2.76,0.3 4,0.7 1.24,0.43 2.11,1.35 2.57,2.78 -0.46,2 -2.22,2.78 -5.22,2.38 -5.14,-0.49 -13.57,-0.65 -25.3,-0.49 -11.76,0.16 -22.19,0.68 -31.33,1.51 -0.84,0.49 -1.46,1.13 -1.81,1.97 -0.38,0.84 -0.68,1.73 -0.89,2.62 -0.13,0.84 -0.38,1.54 -0.7,2.14 -0.95,1.95 -1.54,3.89 -1.73,5.87 -3.97,14.08 -6.41,22.41 -7.3,24.95 -0.38,0.89 -0.68,2.08 -0.95,3.54 -0.27,1.49 -0.51,2.89 -0.7,4.22 -0.11,0.41 -0.43,1.84 -0.97,4.27 -1.78,6.49 2.05,3.78 11.49,-8.16 1.49,-1.43 2.62,-2.57 3.46,-3.41 0.81,-0.84 2.3,-2.51 4.46,-4.97zm-3.73 33.33c-3.84,-3.43 -5.11,-7.76 -3.78,-12.97 1.32,-5.76 3.32,-11.22 6,-16.41 1.59,-3.27 3.54,-6.22 5.87,-8.87 0.22,-0.16 0.41,-0.35 0.57,-0.54 1.84,-1.92 3.76,-3.73 5.78,-5.43 2,-1.73 4.24,-3.11 6.73,-4.16 3.54,-1.38 7.03,-1.05 10.51,0.95 -0.62,0.05 -1.27,0.14 -1.89,0.24l-3 0.32c-1.81,0.89 -3.27,2.03 -4.43,3.41 -1.16,1.35 -2.19,2.84 -3.03,4.43 -0.73,1.32 -1.49,2.65 -2.3,4.03 -3.38,5.7 -6.32,11.62 -8.87,17.73 -0.57,1.43 -1.05,3.05 -1.43,4.84 0.54,-0.22 0.95,-0.49 1.24,-0.84 0.3,-0.32 0.57,-0.7 0.84,-1.05 0.11,-0.16 0.22,-0.32 0.38,-0.49 1.87,-2.43 3.87,-4.68 6.03,-6.73 2.38,-2.43 4.54,-5 6.49,-7.76l1.03 -1.35c1.05,-1.38 2.11,-2.7 3.16,-4.03 2.14,-2.59 4.11,-5.27 5.95,-8 0.05,-0.05 0.11,-0.13 0.16,-0.24 0.22,-0.27 0.35,-0.54 0.41,-0.86 0.41,-1.59 1.11,-2.97 2.08,-4.19 0.97,-1.22 2.14,-2.35 3.46,-3.41 0.68,-0.16 1.38,-0.32 2.14,-0.49 0.27,0.05 0.46,0.14 0.62,0.24 0.16,0.11 0.32,0.24 0.49,0.38 0.22,0.22 0.43,0.41 0.7,0.57 0.27,0 0.54,-0.05 0.81,-0.16 0.46,-0.11 0.97,-0.16 1.54,-0.19 0.54,-0.03 1.14,0.19 1.78,0.68 0.08,0.35 0.22,0.76 0.38,1.19l0.65 1.57c0.05,2 -0.46,3.84 -1.51,5.46 -0.22,0.32 -0.38,0.7 -0.49,1.11 -0.3,2.14 -0.95,4.13 -1.89,6.03l-1.27 3.16c-0.57,1.76 -1.32,3.43 -2.22,5.08l-1.27 2.54c-1.46,3.22 -2.41,6.51 -2.84,9.89 -0.22,3.22 -1.54,6.11 -3.97,8.7 -1.46,0.62 -3,1.03 -4.6,1.19 -1.57,0.16 -3.16,-0.16 -4.73,-0.95 -0.27,-0.54 -0.51,-1.08 -0.73,-1.68 -0.16,-0.62 -0.41,-1.19 -0.76,-1.7 -0.32,-0.49 -0.89,-0.78 -1.68,-0.89 -0.49,0.41 -0.97,0.86 -1.43,1.32 -1,1.05 -2.03,2.05 -3.11,2.95l-0.78 0.62c-1.68,1.54 -3.49,2.86 -5.38,3.97 -1.73,1 -3.7,1.35 -5.87,1.11 -0.51,-0.05 -1.08,-0.13 -1.65,-0.24 -0.32,0 -0.62,-0.03 -0.89,-0.08z"/>
   <path class="fil2" d="M8.72 94.77c0,1.08 0.25,1.91 0.72,2.5 0.47,0.58 1.12,0.88 1.99,0.88l4.1 0 0 8.31 -5.13 0c-3.32,0 -5.87,-1.04 -7.68,-3.08 -1.81,-2.06 -2.72,-4.95 -2.72,-8.69l0 -50.66 8.72 0 0 50.75z"/>
   <path id="_1_6" class="fil2" d="M50.02 78.08c0,-2.91 -0.79,-5.17 -2.34,-6.78 -1.56,-1.61 -3.75,-2.42 -6.62,-2.42 -1.77,0 -3.51,0.28 -5.2,0.82 -1.69,0.54 -3.2,1.3 -4.51,2.26l-6.37 -4.37c1.68,-2.02 3.9,-3.59 6.65,-4.72 2.76,-1.12 5.81,-1.69 9.19,-1.69 3.68,0 6.82,0.64 9.45,1.94 2.63,1.3 4.63,3.18 5.99,5.65 1.37,2.47 2.06,5.45 2.06,8.92l0 28.54 -8.3 0 0 -28.16zm-10.88 28.8c-5.48,0 -9.57,-1.14 -12.27,-3.4 -2.72,-2.26 -4.07,-5.71 -4.07,-10.33 0,-4.4 1.24,-7.7 3.72,-9.89 2.48,-2.2 6.24,-3.3 11.26,-3.3l12.62 0 0.6 7.02 -13.17 0c-2.29,0 -3.99,0.5 -5.13,1.52 -1.12,1.01 -1.68,2.56 -1.68,4.64 0,2.25 0.74,3.91 2.25,4.99 1.49,1.1 3.77,1.64 6.82,1.64 3.33,0 5.83,-0.37 7.46,-1.08 1.64,-0.7 2.47,-1.83 2.47,-3.33l0.89 6.25c-0.77,1.2 -1.72,2.18 -2.85,2.95 -1.12,0.76 -2.42,1.34 -3.91,1.72 -1.48,0.39 -3.15,0.58 -5.01,0.58z"/>
   <path id="_2_7" class="fil2" d="M100.45 73.8l19.89 0c1.88,0 3.53,-0.44 4.97,-1.33 1.43,-0.88 2.53,-2.13 3.32,-3.75 0.79,-1.64 1.18,-3.5 1.18,-5.61l0 0c0,-2.15 -0.39,-4.03 -1.18,-5.65 -0.79,-1.62 -1.88,-2.89 -3.32,-3.78 -1.43,-0.91 -3.08,-1.34 -4.97,-1.34l-19.89 0 0 -8.31 19.6 0c3.71,0 6.97,0.79 9.8,2.38 2.82,1.58 5.01,3.81 6.56,6.69 1.56,2.89 2.34,6.22 2.34,10.02l0 0c0,3.8 -0.77,7.13 -2.34,9.99 -1.55,2.86 -3.74,5.08 -6.56,6.66 -2.83,1.56 -6.09,2.35 -9.8,2.35l-19.6 0 0 -8.31zm-4.5 -29.78l8.73 0 0 62.22 -8.73 0 0 -62.22z"/>
   <path id="_3_8" class="fil2" d="M172.6 78.08c0,-2.91 -0.79,-5.17 -2.34,-6.78 -1.56,-1.61 -3.75,-2.42 -6.62,-2.42 -1.77,0 -3.51,0.28 -5.2,0.82 -1.69,0.54 -3.2,1.3 -4.51,2.26l-6.37 -4.37c1.68,-2.02 3.9,-3.59 6.65,-4.72 2.76,-1.12 5.81,-1.69 9.19,-1.69 3.68,0 6.82,0.64 9.45,1.94 2.63,1.3 4.63,3.18 5.99,5.65 1.37,2.47 2.06,5.45 2.06,8.92l0 28.54 -8.3 0 0 -28.16zm-10.88 28.8c-5.48,0 -9.57,-1.14 -12.27,-3.4 -2.72,-2.26 -4.07,-5.71 -4.07,-10.33 0,-4.4 1.24,-7.7 3.72,-9.89 2.48,-2.2 6.24,-3.3 11.26,-3.3l12.62 0 0.6 7.02 -13.17 0c-2.29,0 -3.99,0.5 -5.13,1.52 -1.12,1.01 -1.68,2.56 -1.68,4.64 0,2.25 0.74,3.91 2.25,4.99 1.49,1.1 3.77,1.64 6.82,1.64 3.33,0 5.83,-0.37 7.46,-1.08 1.64,-0.7 2.47,-1.83 2.47,-3.33l0.89 6.25c-0.77,1.2 -1.72,2.18 -2.85,2.95 -1.12,0.76 -2.42,1.34 -3.91,1.72 -1.48,0.39 -3.15,0.58 -5.01,0.58z"/>
   <path id="_4_9" class="fil2" d="M202.87 94.77c0,1.08 0.25,1.91 0.72,2.5 0.47,0.58 1.12,0.88 1.99,0.88l4.1 0 0 8.31 -5.13 0c-3.32,0 -5.87,-1.04 -7.68,-3.08 -1.81,-2.06 -2.72,-4.95 -2.72,-8.69l0 -50.66 8.72 0 0 50.75z"/>
   <path id="_5_10" class="fil2" d="M244.17 78.08c0,-2.91 -0.79,-5.17 -2.34,-6.78 -1.56,-1.61 -3.75,-2.42 -6.62,-2.42 -1.77,0 -3.51,0.28 -5.2,0.82 -1.69,0.54 -3.2,1.3 -4.51,2.26l-6.37 -4.37c1.68,-2.02 3.9,-3.59 6.65,-4.72 2.76,-1.12 5.81,-1.69 9.19,-1.69 3.68,0 6.82,0.64 9.45,1.94 2.63,1.3 4.63,3.18 5.99,5.65 1.37,2.47 2.06,5.45 2.06,8.92l0 28.54 -8.3 0 0 -28.16zm-10.88 28.8c-5.48,0 -9.57,-1.14 -12.27,-3.4 -2.72,-2.26 -4.07,-5.71 -4.07,-10.33 0,-4.4 1.24,-7.7 3.72,-9.89 2.48,-2.2 6.24,-3.3 11.26,-3.3l12.62 0 0.6 7.02 -13.17 0c-2.29,0 -3.99,0.5 -5.13,1.52 -1.12,1.01 -1.68,2.56 -1.68,4.64 0,2.25 0.74,3.91 2.25,4.99 1.49,1.1 3.77,1.64 6.82,1.64 3.33,0 5.83,-0.37 7.46,-1.08 1.64,-0.7 2.47,-1.83 2.47,-3.33l0.89 6.25c-0.77,1.2 -1.72,2.18 -2.85,2.95 -1.12,0.76 -2.42,1.34 -3.91,1.72 -1.48,0.39 -3.15,0.58 -5.01,0.58z"/>
   <path id="_6_11" class="fil2" d="M285.62 106.88c-2.76,0 -5.17,-0.66 -7.23,-1.99 -2.06,-1.33 -3.56,-3.21 -4.54,-5.64l0.6 -9.27c0,1.91 0.35,3.53 1.04,4.88 0.69,1.33 1.67,2.37 2.96,3.08 1.3,0.7 2.88,1.07 4.73,1.07 2.88,0 5.11,-0.88 6.7,-2.63 1.58,-1.75 2.37,-4.24 2.37,-7.43l0 -9.62c0,-3.24 -0.79,-5.77 -2.37,-7.56 -1.59,-1.8 -3.83,-2.7 -6.7,-2.7 -1.85,0 -3.43,0.35 -4.73,1.02 -1.3,0.69 -2.28,1.69 -2.96,3.02 -0.69,1.33 -1.04,2.92 -1.04,4.78l-0.89 -8.56c1.34,-2.6 3.1,-4.6 5.26,-6.02 2.18,-1.42 4.59,-2.12 7.23,-2.12 3.14,0 5.83,0.7 8.08,2.12 2.23,1.42 3.94,3.48 5.11,6.18 1.17,2.72 1.75,5.99 1.75,9.8l0 9.67c0,3.77 -0.6,7 -1.8,9.68 -1.2,2.67 -2.95,4.72 -5.27,6.13 -2.31,1.42 -5.07,2.12 -8.3,2.12zm-19.89 -62.86l8.72 0 0 62.22 -8.72 0 0 -62.22z"/>
   <path id="_7_12" class="fil2" d="M313.4 61.83l8.72 0 0 44.41 -8.72 0 0 -44.41zm24.43 10.53c-0.77,-0.95 -1.75,-1.67 -2.92,-2.15 -1.17,-0.48 -2.51,-0.73 -4.06,-0.73 -2.76,0 -4.91,0.77 -6.44,2.29 -1.52,1.53 -2.29,3.65 -2.29,6.35l-0.89 -8.56c1.37,-2.64 3.14,-4.7 5.3,-6.18 2.18,-1.47 4.57,-2.21 7.19,-2.21 2.03,0 3.87,0.29 5.51,0.88 1.64,0.58 3.07,1.45 4.29,2.59l-5.68 7.71z"/>
   <path id="_8_13" class="fil2" d="M375.87 78.08c0,-2.91 -0.79,-5.17 -2.34,-6.78 -1.56,-1.61 -3.75,-2.42 -6.62,-2.42 -1.77,0 -3.51,0.28 -5.2,0.82 -1.69,0.54 -3.2,1.3 -4.51,2.26l-6.37 -4.37c1.68,-2.02 3.9,-3.59 6.65,-4.72 2.76,-1.12 5.81,-1.69 9.19,-1.69 3.68,0 6.82,0.64 9.45,1.94 2.63,1.3 4.63,3.18 5.99,5.65 1.37,2.47 2.06,5.45 2.06,8.92l0 28.54 -8.3 0 0 -28.16zm-10.88 28.8c-5.48,0 -9.57,-1.14 -12.27,-3.4 -2.72,-2.26 -4.07,-5.71 -4.07,-10.33 0,-4.4 1.24,-7.7 3.72,-9.89 2.48,-2.2 6.24,-3.3 11.26,-3.3l12.62 0 0.6 7.02 -13.17 0c-2.29,0 -3.99,0.5 -5.13,1.52 -1.12,1.01 -1.68,2.56 -1.68,4.64 0,2.25 0.74,3.91 2.25,4.99 1.49,1.1 3.77,1.64 6.82,1.64 3.33,0 5.83,-0.37 7.46,-1.08 1.64,-0.7 2.47,-1.83 2.47,-3.33l0.89 6.25c-0.77,1.2 -1.72,2.18 -2.85,2.95 -1.12,0.76 -2.42,1.34 -3.91,1.72 -1.48,0.39 -3.15,0.58 -5.01,0.58z"/>
   <path class="fil2" d="M112.37 167.94c-0.51,0.22 -0.97,0.51 -1.32,0.92 -0.38,0.38 -0.7,0.81 -0.97,1.22 -0.13,0.16 -0.27,0.32 -0.38,0.49 -3.11,4.22 -5.89,8.68 -8.32,13.38 -1,1.95 -1.73,4 -2.22,6.16 -0.32,1.43 -0.38,2.81 -0.24,4.16 0.16,1.35 0.78,2.54 1.84,3.54 1.89,0.35 3.41,0.62 4.51,0.78 1.11,0.16 2.62,-0.03 4.6,-0.57 1,-0.24 2,-0.54 3,-0.86l0.32 -0.16c2.11,-0.68 3.92,-2.03 5.46,-4.08 1.51,-2.03 2.35,-4.11 2.46,-6.27 0.57,-2.32 0.03,-5.19 -1.62,-8.6 -1.68,-3.41 -3.76,-6.65 -6.22,-9.7 -0.05,-0.11 -0.13,-0.19 -0.24,-0.22 -0.11,0 -0.22,-0.05 -0.32,-0.11 -0.11,0 -0.22,-0.03 -0.32,-0.08zm-19.95 -26.76c0.05,-2.11 -0.16,-4.19 -0.62,-6.27 -0.11,-0.24 -0.16,-0.51 -0.14,-0.78 0.03,-0.27 0.11,-0.51 0.22,-0.78 0.84,-1.7 1.43,-3.49 1.81,-5.38 0.16,-0.59 0.32,-1.19 0.49,-1.84 0.3,-0.95 0.81,-1.76 1.49,-2.46 0,-0.05 0.03,-0.08 0.08,-0.14l2.05 -2.7c1.11,-1.7 2.41,-3.24 3.89,-4.68 0.32,-0.32 0.59,-0.73 0.86,-1.27 0.16,-0.22 0.35,-0.46 0.57,-0.78 1.46,-0.43 2.68,-1.19 3.62,-2.3 0.59,-0.62 1.22,-1.19 1.92,-1.68 1.51,-0.95 3.03,-1.92 4.51,-2.92 1.51,-1 3.08,-2 4.68,-3 3.57,-2.32 7.49,-3.35 11.7,-3.11 0.95,0.05 1.87,0.08 2.78,0.08l0.08 0c2.73,-0.11 5.49,0.41 8.22,1.51 0.27,0.27 0.54,0.57 0.81,0.86 1.22,1.11 2.3,2.46 3.24,4.05 1.38,2.57 1.59,5.3 0.7,8.14 -1.27,3.65 -2.68,7.24 -4.19,10.78 -0.16,0.41 -0.35,0.84 -0.57,1.27 -0.35,1.22 -1.08,2.27 -2.14,3.16 -0.35,-0.32 -0.57,-0.65 -0.59,-1.03 -0.03,-0.38 0.03,-0.73 0.13,-1.11l0 -0.16c0.35,-2.32 0.51,-4.68 0.46,-7.05l0 -1.43c0.05,-1.35 -0.11,-2.7 -0.46,-4.03 -0.16,-0.62 -0.32,-1.05 -0.49,-1.3 -0.16,-0.24 -0.35,-0.35 -0.54,-0.35 -0.22,0 -0.49,0.05 -0.81,0.14 -0.57,0.22 -1.41,0.27 -2.51,0.16 -2.81,-0.35 -5.24,0 -7.32,1.08 -2.11,1.08 -4.11,2.46 -6.08,4.16 -0.57,0.41 -1.16,0.86 -1.73,1.32 -0.73,0.54 -1.43,1.11 -2.05,1.68 -1,0.84 -2.03,1.65 -3.08,2.46 -0.27,0.16 -0.54,0.35 -0.81,0.54 -0.27,0.22 -0.43,0.46 -0.54,0.73 -0.54,1.16 -1.27,2.05 -2.22,2.68l-0.49 0.32c-2,1.54 -3.16,3.54 -3.49,6.03 -0.11,0.62 -0.32,1.22 -0.62,1.73 -0.54,1.32 -0.32,2.78 0.68,4.41 0.97,1.59 2.38,2.89 4.22,3.84 0.11,1 0.46,1.84 1.03,2.54 0.59,0.68 1.24,1.3 2,1.89 0.57,0.46 1.14,0.97 1.65,1.51 1.49,1.51 2.76,3.16 3.81,4.89 1.16,1.95 2.46,3.78 3.87,5.46l1.92 2.38c1.22,1.76 2.22,3.51 3,5.32 0.22,0.46 0.43,0.92 0.65,1.32 0.84,1.81 1.59,3.65 2.27,5.54 0.7,1.92 1.11,3.89 1.27,5.95 0.05,0.43 0.08,0.84 0.08,1.27 0.05,0.95 0.13,1.87 0.24,2.78 0.54,5.05 -0.81,9.51 -4.03,13.38 -0.38,0.46 -0.76,0.97 -1.11,1.49 -0.81,1.11 -1.7,2.14 -2.7,3.11 -3.38,3.32 -7.41,4.97 -12.11,4.97 -0.95,0 -1.89,0.03 -2.78,0.08 -1.84,0.22 -3.73,0.13 -5.7,-0.24 -3.27,-0.73 -6.05,-2.03 -8.38,-3.92 -2.32,-1.86 -4.05,-4.43 -5.16,-7.7 -0.51,-1.32 -0.59,-2.65 -0.22,-3.97 0.3,-1.22 0.49,-2.46 0.54,-3.73 0.05,-0.3 0.08,-0.62 0.08,-0.95 0.51,-3.78 1.81,-7.3 3.89,-10.51 1.57,-2.65 3.41,-5.05 5.49,-7.22 2.08,-2.16 4.32,-4.22 6.7,-6.16 0.46,-0.43 0.97,-0.89 1.49,-1.35 0.22,-0.22 0.46,-0.43 0.73,-0.65 -1.32,-2.32 -2.95,-4.35 -4.84,-6.08 -2.7,-2.97 -5.16,-6.11 -7.43,-9.43 -1,-1.43 -2.05,-2.84 -3.11,-4.27 -0.51,-0.7 -0.81,-1.46 -0.86,-2.3zm67.25 16.46c-1.49,1 -2.08,1.81 -1.78,2.43 0.27,0.59 0.73,0.84 1.3,0.73 0.59,-0.08 1.22,-0.27 1.95,-0.51 0.7,-0.22 1.78,-0.65 3.24,-1.22 1.46,-0.59 2.73,-1.49 3.84,-2.7l1.27 -1.41c0.89,-0.86 1.7,-1.78 2.41,-2.78 0.73,-1 1.24,-2.14 1.54,-3.41 -0.24,-0.05 -0.49,-0.08 -0.7,-0.08 -0.73,-0.05 -1.3,-0.08 -1.7,-0.11 -0.41,-0.03 -0.76,0.03 -1.08,0.16 -0.3,0.14 -0.73,0.32 -1.24,0.59 -1.38,0.68 -2.68,1.46 -3.87,2.32 -1.16,0.86 -2.14,2.05 -2.86,3.51 -0.49,1.03 -1.24,1.84 -2.3,2.46zm-2.22 6.81c-3.3,-0.27 -5.08,1.16 -5.41,4.27 -0.11,0.7 -0.3,1.35 -0.62,2 -0.43,0.89 -0.62,1.84 -0.57,2.84 0.7,0.73 1.54,1.08 2.54,1.03 3.65,1.32 7.3,1.11 10.92,-0.62 2.14,-0.95 4.22,-1.92 6.27,-2.95 1.38,-0.73 2.76,-1.43 4.19,-2.14 0.11,-0.05 0.22,-0.08 0.32,-0.08 4.43,-2.46 9.03,-5.19 13.78,-8.14 0.73,-1.05 1.84,-1.51 3.32,-1.35 1.46,0.16 2.87,0.92 4.19,2.3 -1.7,2.22 -4.24,4.68 -7.68,7.35 -0.81,0.7 -1.38,1.49 -1.76,2.38 -0.3,0.84 -0.73,1.43 -1.27,1.76 -1.78,1 -3.49,2.3 -5.14,3.95 -1.65,1.65 -5.35,3.81 -11.16,6.54 -5.81,2.7 -9.62,4.33 -11.49,4.87 -1.22,0.27 -2.43,0.38 -3.65,0.32 -1,0 -1.92,0.08 -2.76,0.22 -3.11,-0.78 -5.87,-1.41 -8.27,-1.84 -2.41,-0.46 -4.46,-2.14 -6.14,-5.03l-0.32 -1.92 -0.95 -4.6c-0.22,-1.35 -0.11,-2.73 0.3,-4.11 0.05,-0.11 0.08,-0.24 0.08,-0.41 0.59,-2.32 1.41,-4.54 2.46,-6.65l0.95 -2.38c1.22,-2.51 2.7,-4.84 4.43,-6.95 0.05,-0.16 0.14,-0.3 0.24,-0.41 0.11,-0.16 0.24,-0.3 0.41,-0.41 0.11,-0.05 0.22,-0.11 0.32,-0.19 0.11,-0.08 0.14,-0.16 0.14,-0.27 0.76,-1.92 1.89,-3.46 3.41,-4.68 0.76,-0.65 1.43,-1.32 2.08,-2.05 1.62,-2.08 3.51,-3.78 5.62,-5.19 2.11,-1.41 4.32,-2.65 6.65,-3.76 1.32,-0.65 2.73,-0.95 4.27,-0.89 0.73,0 1.49,-0.05 2.22,-0.16 1.16,-0.24 2.43,-0.27 3.81,-0.05 0.57,0.24 1.19,0.51 1.81,0.78 1.49,0.62 2.97,1.38 4.51,2.22 1.54,0.84 2.92,1.97 4.19,3.41 0.16,2.38 -0.08,4.62 -0.76,6.76 -0.65,2.14 -2.03,4.08 -4.13,5.84 -2.27,1.78 -4.6,3.41 -6.97,4.86 -2.38,1.46 -5,2.51 -7.84,3.19 -2.05,0.38 -4.11,0.49 -6.11,0.32l-0.46 0zm31.27 19l-0.46 -1.57c-0.32,-1.11 -0.68,-2.19 -1.05,-3.24 -0.46,-1.7 -0.65,-3.35 -0.54,-4.95 0.11,-1.62 0.35,-3.22 0.7,-4.81 0.16,-0.78 0.3,-1.57 0.41,-2.38 0.73,-3.62 1.97,-7.03 3.73,-10.22 1.68,-3.73 3.95,-7.08 6.81,-10.05 3.27,-2.78 6.81,-5.19 10.68,-7.19 1.84,-1 3.95,-1.49 6.3,-1.46 2.35,0.03 4.43,0.49 6.22,1.38 0.95,0.38 1.7,1.3 2.3,2.76 -1.54,-0.13 -3.14,-0.05 -4.78,0.32 -1.68,0.38 -3.05,1.08 -4.16,2.14l-2.05 2.87c-3.03,3.78 -5.78,7.76 -8.33,11.87 -2.54,4.11 -4.41,8.62 -5.62,13.54 -0.27,1.59 0.11,3.03 1.11,4.35 2.59,1.59 5.24,1.65 8,0.16 2.27,-1.11 4.49,-2.3 6.65,-3.57 2.32,-1.38 4.73,-2.62 7.22,-3.78 0.73,-0.38 1.35,-0.92 1.89,-1.59 0.32,-0.38 0.73,-0.59 1.22,-0.7 0.51,-0.11 1.05,-0.16 1.62,-0.16 0.49,0 0.95,-0.03 1.41,-0.08 0.43,-0.05 0.78,-0.22 1.05,-0.49 0.65,-0.57 1.13,-1.03 1.46,-1.32 0.35,-0.32 1.62,-1.11 3.78,-2.35 2.16,-1.24 4.51,-1.95 7.03,-2.11 0.86,0.59 1.32,1.3 1.41,2.16 0.08,0.84 0,1.7 -0.22,2.59 -0.62,2.54 -1.92,4.65 -3.87,6.35 -0.95,0.78 -1.7,1.41 -2.22,1.89 -0.54,0.49 -0.97,0.89 -1.35,1.27 -0.43,0.41 -0.92,0.89 -1.46,1.38 -0.57,0.51 -1.43,1.22 -2.57,2.19 -0.65,0.51 -1.32,1 -2.08,1.41 -1.22,0.65 -2.19,1.41 -2.92,2.3 -0.38,0.32 -0.7,0.51 -1,0.57 -0.27,0.05 -0.51,0.08 -0.68,0.08l-0.13 0c-5.35,3.54 -10.81,6.22 -16.41,8.08 -2.11,0.13 -4.19,0.05 -6.24,-0.32 -0.87,-0.05 -1.68,-0.13 -2.46,-0.24 -1.59,-0.27 -2.95,-0.86 -4.05,-1.81 -1,-0.86 -2.14,-1.43 -3.41,-1.76 -0.3,-0.35 -0.59,-0.76 -0.86,-1.19 -0.51,-0.95 -1.22,-1.7 -2.05,-2.3zm44.57 -8.46c-0.11,-0.89 -0.03,-1.84 0.24,-2.78 1.54,-4.89 3,-9.87 4.43,-14.87 1.43,-5.03 2.62,-10.11 3.57,-15.3l0 -0.08c0.05,-0.38 0.13,-0.73 0.24,-1.11 0.11,-0.35 0.32,-0.7 0.62,-1.03 1.16,-0.11 2.11,-0.3 2.87,-0.54 2.05,-0.27 3.24,-0.38 3.59,-0.3 0.35,0.08 0.51,0.51 0.51,1.32 0,0.57 -0.08,1.14 -0.24,1.65 -0.11,0.54 -0.16,1.08 -0.19,1.68 -0.03,0.57 0.13,1.19 0.51,1.81 2.16,-1 4.05,-1.89 5.7,-2.65 1.62,-0.76 3.78,-0.65 6.41,0.35 2.49,0.32 4.3,2 5.46,5.08 2.16,4.68 2.08,7.54 -0.3,8.54 -0.54,1 -0.95,1.73 -1.24,2.14 -0.27,0.43 -1.27,0.16 -2.92,-0.78 -1.68,-0.95 -2.92,-1.59 -3.76,-1.89 -0.43,0.51 -0.92,0.89 -1.51,1.11 -0.57,0.19 -1.22,0.35 -1.89,0.46 -0.16,0.05 -0.32,0.08 -0.49,0.08 -2.05,0.49 -3.81,1.57 -5.27,3.24 -1.43,1.7 -2.3,3.68 -2.57,5.95 -0.27,2.32 -0.54,4.65 -0.86,6.97 -0.38,2.11 -0.68,4.22 -0.86,6.32 -0.38,3.27 -1.43,6.3 -3.19,9.03 -1.35,0.65 -2.68,0.78 -3.95,0.43 -1.27,-0.32 -2.46,-0.95 -3.57,-1.86 -2.05,-1.73 -2.73,-4 -2.05,-6.81 0.57,-2 0.81,-4.05 0.7,-6.16zm53.87 -17.35c-1.49,1 -2.08,1.81 -1.78,2.43 0.27,0.59 0.73,0.84 1.3,0.73 0.59,-0.08 1.22,-0.27 1.95,-0.51 0.7,-0.22 1.78,-0.65 3.24,-1.22 1.46,-0.59 2.73,-1.49 3.84,-2.7l1.27 -1.41c0.89,-0.86 1.7,-1.78 2.41,-2.78 0.73,-1 1.24,-2.14 1.54,-3.41 -0.24,-0.05 -0.49,-0.08 -0.7,-0.08 -0.73,-0.05 -1.3,-0.08 -1.7,-0.11 -0.41,-0.03 -0.76,0.03 -1.08,0.16 -0.3,0.14 -0.73,0.32 -1.24,0.59 -1.38,0.68 -2.68,1.46 -3.87,2.32 -1.16,0.86 -2.14,2.05 -2.86,3.51 -0.49,1.03 -1.24,1.84 -2.3,2.46zm-2.22 6.81c-3.3,-0.27 -5.08,1.16 -5.41,4.27 -0.11,0.7 -0.3,1.35 -0.62,2 -0.43,0.89 -0.62,1.84 -0.57,2.84 0.7,0.73 1.54,1.08 2.54,1.03 3.65,1.32 7.3,1.11 10.92,-0.62 2.14,-0.95 4.22,-1.92 6.27,-2.95 1.38,-0.73 2.76,-1.43 4.19,-2.14 0.11,-0.05 0.22,-0.08 0.32,-0.08 4.43,-2.46 9.03,-5.19 13.78,-8.14 0.73,-1.05 1.84,-1.51 3.32,-1.35 1.46,0.16 2.87,0.92 4.19,2.3 -1.7,2.22 -4.24,4.68 -7.68,7.35 -0.81,0.7 -1.38,1.49 -1.76,2.38 -0.3,0.84 -0.73,1.43 -1.27,1.76 -1.78,1 -3.49,2.3 -5.14,3.95 -1.65,1.65 -5.35,3.81 -11.16,6.54 -5.81,2.7 -9.62,4.33 -11.49,4.87 -1.22,0.27 -2.43,0.38 -3.65,0.32 -1,0 -1.92,0.08 -2.76,0.22 -3.11,-0.78 -5.87,-1.41 -8.27,-1.84 -2.41,-0.46 -4.46,-2.14 -6.14,-5.03l-0.32 -1.92 -0.95 -4.6c-0.22,-1.35 -0.11,-2.73 0.3,-4.11 0.05,-0.11 0.08,-0.24 0.08,-0.41 0.59,-2.32 1.41,-4.54 2.46,-6.65l0.95 -2.38c1.22,-2.51 2.7,-4.84 4.43,-6.95 0.05,-0.16 0.14,-0.3 0.24,-0.41 0.11,-0.16 0.24,-0.3 0.41,-0.41 0.11,-0.05 0.22,-0.11 0.32,-0.19 0.11,-0.08 0.14,-0.16 0.14,-0.27 0.76,-1.92 1.89,-3.46 3.41,-4.68 0.76,-0.65 1.43,-1.32 2.08,-2.05 1.62,-2.08 3.51,-3.78 5.62,-5.19 2.11,-1.41 4.32,-2.65 6.65,-3.76 1.32,-0.65 2.73,-0.95 4.27,-0.89 0.73,0 1.49,-0.05 2.22,-0.16 1.16,-0.24 2.43,-0.27 3.81,-0.05 0.57,0.24 1.19,0.51 1.81,0.78 1.49,0.62 2.97,1.38 4.51,2.22 1.54,0.84 2.92,1.97 4.19,3.41 0.16,2.38 -0.08,4.62 -0.76,6.76 -0.65,2.14 -2.03,4.08 -4.13,5.84 -2.27,1.78 -4.6,3.41 -6.97,4.86 -2.38,1.46 -5,2.51 -7.84,3.19 -2.05,0.38 -4.11,0.49 -6.11,0.32l-0.46 0zm61.52 -6.08c1.11,0.41 1.76,0.78 1.89,1.14 0.16,0.35 0.11,0.95 -0.14,1.78 -0.11,0.32 -0.19,0.62 -0.24,0.95 -0.16,0.65 -0.22,1.27 -0.16,1.89 0.16,1.54 -0.38,2.84 -1.59,3.89 -4.54,7.81 -7.51,12.43 -8.95,13.87 -1.3,1.38 -2.68,2.7 -4.11,4.03 -1.78,1.65 -3.7,3.08 -5.7,4.35 -1.95,1.32 -3.65,2.68 -5.05,4.05l-0.32 0.3c-4.97,0.97 -8.97,-0.3 -12.03,-3.78 -0.49,-2 -0.57,-3.97 -0.3,-5.87 0.3,-1.89 0.7,-3.78 1.24,-5.62 0.62,-2.11 1.32,-5.3 2.05,-9.57 1.78,-2.65 2.89,-5.68 3.32,-9.11 0.38,-1.86 1.68,-6.19 3.92,-13 2.24,-6.81 3.6,-11.73 4.08,-14.81 1.16,-1.27 2,-2.73 2.54,-4.43 0.41,-1.22 0.97,-2.41 1.65,-3.57 -1.62,-0.62 -3.38,-1.03 -5.27,-1.22 -1.87,-0.19 -3.81,-0.3 -5.81,-0.35 -2.05,-0.05 -4.08,-0.19 -6.11,-0.41 -2,-0.22 -3.81,-0.68 -5.46,-1.43 0.22,-0.51 0.68,-1.05 1.35,-1.57 0.68,-0.54 1.38,-0.97 2.11,-1.35 0.7,-0.38 1.24,-0.57 1.62,-0.57 2.05,-0.19 4.08,-0.51 6.08,-0.95 1.97,-0.41 3.95,-0.7 5.95,-0.86 0.62,-0.11 1.27,-0.19 1.89,-0.24 1.43,-0.24 2.89,-0.32 4.35,-0.22 1.76,0.19 3.46,-0.32 5.16,-1.59 1.16,-2.54 2.43,-5.03 3.81,-7.43 0.89,-1.49 1.73,-3 2.51,-4.51 1.11,0.19 1.84,0.51 2.19,0.89 0.35,0.41 0.43,1.08 0.27,2.03 0,0.51 0.05,0.92 0.11,1.19 0.08,0.27 0.19,0.46 0.3,0.62 0.11,0.11 0.19,0.3 0.27,0.57 0.08,0.27 0.08,0.68 0.03,1.27 -0.05,0.22 -0.16,0.65 -0.38,1.32 -0.27,0.81 -0.51,1.62 -0.73,2.43 -0.19,0.81 -0.22,1.35 -0.05,1.62 0.3,0.32 0.54,0.68 0.7,1.11 0.11,0.32 0.24,0.57 0.41,0.78 0.13,0.22 0.35,0.3 0.62,0.24 1.43,-0.05 2.89,-0.03 4.43,0.08 1.89,0.22 3.73,0.22 5.46,0 0.89,-0.11 1.73,-0.13 2.49,-0.11 0.78,0.03 1.57,0.08 2.35,0.19 0.46,0.05 1,0.11 1.57,0.16 1.38,0.16 2.73,0.16 4.05,0 3.22,-0.54 6.43,-0.68 9.65,-0.41l1.43 0c1,0.11 2.03,0.11 3.08,0 2.59,-0.32 5.16,-0.27 7.7,0.16 2.51,0.43 5.03,0.95 7.51,1.59 0.16,0.03 0.32,0.08 0.54,0.13 0.81,0.16 1.68,0.3 2.62,0.41 1.43,0.05 2.76,0.3 4,0.7 1.24,0.43 2.11,1.35 2.57,2.78 -0.46,2 -2.22,2.78 -5.22,2.38 -5.14,-0.49 -13.57,-0.65 -25.3,-0.49 -11.76,0.16 -22.19,0.68 -31.33,1.51 -0.84,0.49 -1.46,1.13 -1.81,1.97 -0.38,0.84 -0.68,1.73 -0.89,2.62 -0.13,0.84 -0.38,1.54 -0.7,2.14 -0.95,1.95 -1.54,3.89 -1.73,5.87 -3.97,14.08 -6.41,22.41 -7.3,24.95 -0.38,0.89 -0.68,2.08 -0.95,3.54 -0.27,1.49 -0.51,2.89 -0.7,4.22 -0.11,0.41 -0.43,1.84 -0.97,4.27 -1.78,6.49 2.05,3.78 11.49,-8.16 1.49,-1.43 2.62,-2.57 3.46,-3.41 0.81,-0.84 2.3,-2.51 4.46,-4.97zm-3.73 33.33c-3.84,-3.43 -5.11,-7.76 -3.78,-12.97 1.32,-5.76 3.32,-11.22 6,-16.41 1.59,-3.27 3.54,-6.22 5.87,-8.87 0.22,-0.16 0.41,-0.35 0.57,-0.54 1.84,-1.92 3.76,-3.73 5.78,-5.43 2,-1.73 4.24,-3.11 6.73,-4.16 3.54,-1.38 7.03,-1.05 10.51,0.95 -0.62,0.05 -1.27,0.14 -1.89,0.24l-3 0.32c-1.81,0.89 -3.27,2.03 -4.43,3.41 -1.16,1.35 -2.19,2.84 -3.03,4.43 -0.73,1.32 -1.49,2.65 -2.3,4.03 -3.38,5.7 -6.32,11.62 -8.87,17.73 -0.57,1.43 -1.05,3.05 -1.43,4.84 0.54,-0.22 0.95,-0.49 1.24,-0.84 0.3,-0.32 0.57,-0.7 0.84,-1.05 0.11,-0.16 0.22,-0.32 0.38,-0.49 1.87,-2.43 3.87,-4.68 6.03,-6.73 2.38,-2.43 4.54,-5 6.49,-7.76l1.03 -1.35c1.05,-1.38 2.11,-2.7 3.16,-4.03 2.14,-2.59 4.11,-5.27 5.95,-8 0.05,-0.05 0.11,-0.13 0.16,-0.24 0.22,-0.27 0.35,-0.54 0.41,-0.86 0.41,-1.59 1.11,-2.97 2.08,-4.19 0.97,-1.22 2.14,-2.35 3.46,-3.41 0.68,-0.16 1.38,-0.32 2.14,-0.49 0.27,0.05 0.46,0.14 0.62,0.24 0.16,0.11 0.32,0.24 0.49,0.38 0.22,0.22 0.43,0.41 0.7,0.57 0.27,0 0.54,-0.05 0.81,-0.16 0.46,-0.11 0.97,-0.16 1.54,-0.19 0.54,-0.03 1.14,0.19 1.78,0.68 0.08,0.35 0.22,0.76 0.38,1.19l0.65 1.57c0.05,2 -0.46,3.84 -1.51,5.46 -0.22,0.32 -0.38,0.7 -0.49,1.11 -0.3,2.14 -0.95,4.13 -1.89,6.03l-1.27 3.16c-0.57,1.76 -1.32,3.43 -2.22,5.08l-1.27 2.54c-1.46,3.22 -2.41,6.51 -2.84,9.89 -0.22,3.22 -1.54,6.11 -3.97,8.7 -1.46,0.62 -3,1.03 -4.6,1.19 -1.57,0.16 -3.16,-0.16 -4.73,-0.95 -0.27,-0.54 -0.51,-1.08 -0.73,-1.68 -0.16,-0.62 -0.41,-1.19 -0.76,-1.7 -0.32,-0.49 -0.89,-0.78 -1.68,-0.89 -0.49,0.41 -0.97,0.86 -1.43,1.32 -1,1.05 -2.03,2.05 -3.11,2.95l-0.78 0.62c-1.68,1.54 -3.49,2.86 -5.38,3.97 -1.73,1 -3.7,1.35 -5.87,1.11 -0.51,-0.05 -1.08,-0.13 -1.65,-0.24 -0.32,0 -0.62,-0.03 -0.89,-0.08z"/>
   <g>
    <path class="fil3" d="M30.91 128.99c13.39,-0.75 24.91,9.43 25.67,22.84 0.77,13.48 -9.43,25.05 -22.92,25.85 -13.44,0.79 -25.07,-9.5 -25.82,-22.95 -0.76,-13.59 9.51,-24.98 23.07,-25.73zm44.23 74.69l2.28 0c2.21,-0.77 3.83,-1.65 4.72,-3.97 0.83,-2.17 0.46,-4.72 -1.11,-6.47 -4.52,-5.03 -12,-11.6 -17.07,-17.04 -3.28,-3.52 -2.8,1.33 -5.07,-1.22 -1.31,-1.47 -2.87,-2.77 -4.18,-4.27 0.49,-1.09 1.21,-1.87 1.83,-2.9 1.95,-3.22 3.29,-7.14 3.75,-10.86 0.69,-5.5 -0.24,-11.33 -2.72,-16.3 -2.08,-4.15 -5.26,-7.76 -9.02,-10.47 -4.71,-3.4 -8.63,-4.26 -14.23,-5.16l-4.26 0c-9,1.26 -16.07,4.72 -21.27,12.39 -5.35,7.89 -6.31,17.74 -2.8,26.59 4.99,12.61 18.85,19.9 32.25,16.98 5.06,-1.1 7.13,-2.69 11.38,-5.17 1.24,1.06 2.4,2.36 3.58,3.5 3.36,3.28 0.27,1.27 0.68,4.06 0.15,1 2.45,2.9 3.24,3.7l13.83 13.83c1.76,1.75 1.79,1.91 4.21,2.78z"/>
    <path class="fil3" d="M30.85 134.39c0.27,2.05 3.37,1.38 7.67,3.49 2.49,1.22 4.65,2.66 6.42,4.83 5.28,6.5 2.26,11.22 4.61,12.31 5.02,2.34 3.58,-10.81 -4.18,-17.37 -2.13,-1.8 -4.5,-3.13 -7.1,-4.1 -1.74,-0.65 -7.96,-3.16 -7.42,0.84z"/>
   </g>
   <path class="fil0" d="M37.03 161.86c-1.4,-1.08 -2.52,-2.2 -3.36,-3.36 -0.85,-1.17 -1.47,-2.26 -1.88,-3.29 -0.4,-1.03 -0.81,-2.28 -1.22,-3.76 -0.32,-1.09 -0.59,-1.97 -0.83,-2.63 -0.23,-0.66 -0.56,-1.32 -0.97,-1.96 -0.42,-0.64 -0.96,-1.22 -1.62,-1.73l-0.02 -0.02c-1.15,-0.89 -2.27,-1.28 -3.35,-1.18 -1.09,0.09 -2.04,0.67 -2.85,1.72 -0.83,1.07 -1.08,2.2 -0.75,3.39 0.33,1.2 1.21,2.35 2.63,3.48l0.02 0.02 -3.17 4.09 -0.02 -0.02c-1.7,-1.4 -2.92,-2.88 -3.69,-4.45 -0.76,-1.56 -1.04,-3.13 -0.83,-4.73 0.2,-1.59 0.88,-3.14 2.05,-4.64 1.21,-1.56 2.54,-2.68 3.99,-3.35 1.45,-0.67 2.95,-0.87 4.51,-0.61 1.55,0.27 3.11,1.01 4.66,2.21l0.02 0.02c0.94,0.73 1.69,1.5 2.25,2.32 0.56,0.82 0.98,1.63 1.26,2.41 0.28,0.78 0.59,1.77 0.91,2.99 0.33,1.31 0.67,2.43 0.99,3.34 0.34,0.91 0.86,1.86 1.56,2.85 0.7,0.99 1.65,1.94 2.85,2.87l-3.13 4.03zm3.06 2.54l3.28 -4.23 4.23 3.28 -3.28 4.23 -4.23 -3.28z"/>
  </g>
 </g>
</svg>
